<svg xmlns="http://www.w3.org/2000/svg" viewBox="0 0 900 675"><defs><linearGradient id="bg" x1="0" y1="0" x2="1" y2="1"><stop stop-color="#f4dfbd"/><stop offset=".55" stop-color="#d9b27e"/><stop offset="1" stop-color="#9b6847"/></linearGradient><radialGradient id="pumpkin"><stop stop-color="#e99a4d"/><stop offset=".78" stop-color="#b95b2f"/><stop offset="1" stop-color="#74361f"/></radialGradient><filter id="s"><feDropShadow dx="0" dy="8" stdDeviation="8" flood-opacity=".27"/></filter><filter id="g"><feTurbulence type="fractalNoise" baseFrequency=".65" numOctaves="3" seed="21"/><feColorMatrix values="1 0 0 0 0 0 1 0 0 0 0 0 1 0 0 0 0 0 .08 0"/></filter></defs><rect width="900" height="675" fill="url(#bg)"/><path d="M0 535c138-48 269 20 407-14 135-33 264 25 493-6v160H0Z" fill="#76523b" opacity=".72"/><g transform="translate(58 52)"><path d="M0 0c80 118 117 226 113 324" fill="none" stroke="#765038" stroke-width="18"/><g filter="url(#s)"><path d="M28 72c51-22 86 12 75 58-43 3-77-17-75-58Z" fill="#ad4f2f" stroke="#75331f" stroke-width="5"/><path d="M58 145c51-22 86 12 75 58-43 3-77-17-75-58Z" fill="#d18433" stroke="#875322" stroke-width="5"/><path d="M79 230c47-23 82 8 73 53-40 5-75-14-73-53Z" fill="#8f5e3b" stroke="#62402a" stroke-width="5"/></g></g><g transform="translate(840 623) rotate(180)"><path d="M0 0c80 118 117 226 113 324" fill="none" stroke="#765038" stroke-width="18"/><g filter="url(#s)"><path d="M28 72c51-22 86 12 75 58-43 3-77-17-75-58Z" fill="#ad4f2f" stroke="#75331f" stroke-width="5"/><path d="M58 145c51-22 86 12 75 58-43 3-77-17-75-58Z" fill="#d18433" stroke="#875322" stroke-width="5"/><path d="M79 230c47-23 82 8 73 53-40 5-75-14-73-53Z" fill="#8f5e3b" stroke="#62402a" stroke-width="5"/></g></g><g transform="translate(215 390)" filter="url(#s)"><ellipse cx="135" cy="112" rx="130" ry="93" fill="url(#pumpkin)" stroke="#793a22" stroke-width="8"/><path d="M135 25c-34 20-51 50-51 87s17 68 51 90m0-177c34 20 51 50 51 87s-17 68-51 90" fill="none" stroke="#9c4827" stroke-width="10"/><path d="M135 29c-4-38 13-62 50-73" fill="none" stroke="#596044" stroke-width="17"/></g><g transform="translate(510 427)" filter="url(#s)"><ellipse cx="105" cy="90" rx="101" ry="74" fill="#d68b39" stroke="#875323" stroke-width="8"/><path d="M105 21c-25 16-38 40-38 69 0 30 13 55 38 72m0-141c25 16 38 40 38 69 0 30-13 55-38 72" fill="none" stroke="#aa662d" stroke-width="9"/><path d="M105 23c-3-31 12-51 42-60" fill="none" stroke="#596044" stroke-width="15"/></g><g fill="#e5c38d" opacity=".72"><circle cx="445" cy="260" r="8"/><circle cx="520" cy="310" r="6"/><circle cx="600" cy="248" r="7"/></g><rect width="900" height="675" filter="url(#g)" opacity=".18"/><rect x="20" y="20" width="860" height="635" rx="24" fill="none" stroke="#f8ead5" stroke-width="5" opacity=".72"/></svg>