<svg xmlns="http://www.w3.org/2000/svg" viewBox="0 0 900 675"><defs><linearGradient id="bg" x1="0" y1="0" x2="1" y2="1"><stop stop-color="#f8f4ed"/><stop offset=".5" stop-color="#e9f2f5"/><stop offset="1" stop-color="#f2e3e8"/></linearGradient><filter id="s"><feDropShadow dx="0" dy="8" stdDeviation="8" flood-opacity=".22"/></filter><filter id="g"><feTurbulence type="fractalNoise" baseFrequency=".7" numOctaves="3" seed="9"/><feColorMatrix values="1 0 0 0 0 0 1 0 0 0 0 0 1 0 0 0 0 0 .07 0"/></filter></defs><rect width="900" height="675" fill="url(#bg)"/><g fill="#fff" opacity=".78"><ellipse cx="155" cy="118" rx="128" ry="48"/><ellipse cx="727" cy="139" rx="150" ry="54"/></g><path d="M36 116c210 74 427 76 828-3" fill="none" stroke="#9aa8a9" stroke-width="4"/><g filter="url(#s)" transform="translate(110 198)"><rect width="174" height="174" rx="25" fill="#86aabd" stroke="#577987" stroke-width="7"/><path d="M46 117c15-58 67-82 98-37 30 44-2 81-57 81-31 0-49-16-41-44Z" fill="#f8f2ea"/><circle cx="86" cy="81" r="27" fill="#f8f2ea"/><circle cx="97" cy="76" r="4" fill="#65747a"/></g><g filter="url(#s)" transform="translate(362 165)"><rect width="174" height="174" rx="25" fill="#d3a9b5" stroke="#9b6d79" stroke-width="7"/><path d="M87 38v98M38 87h98" stroke="#fff8f5" stroke-width="22" stroke-linecap="round"/></g><g filter="url(#s)" transform="translate(615 204)"><rect width="174" height="174" rx="25" fill="#aeb189" stroke="#777b59" stroke-width="7"/><path d="M45 128q42-94 84 0Z" fill="#fff8ee"/><path d="M63 95c16-31 32-31 48 0" fill="none" stroke="#d7a784" stroke-width="10"/><circle cx="87" cy="72" r="26" fill="#fff8ee"/></g><g transform="translate(610 429)" filter="url(#s)"><path d="M0 125c29-86 97-126 165-77 42 30 56 74 31 116H35Z" fill="#e4ceb4" stroke="#a48265" stroke-width="7"/><circle cx="95" cy="69" r="42" fill="#f7eee5" stroke="#b89c86" stroke-width="6"/><circle cx="81" cy="65" r="5" fill="#6c5d54"/><circle cx="109" cy="65" r="5" fill="#6c5d54"/><path d="M83 85c8 8 16 8 24 0" fill="none" stroke="#c38a8c" stroke-width="5"/></g><g fill="#c59aa9" opacity=".8"><circle cx="270" cy="493" r="9"/><circle cx="322" cy="537" r="7"/><circle cx="450" cy="464" r="8"/></g><path d="M0 575c175-52 323 20 477-12 145-31 282 20 423-4v116H0Z" fill="#c7b9aa" opacity=".5"/><rect width="900" height="675" filter="url(#g)" opacity=".18"/><rect x="20" y="20" width="860" height="635" rx="24" fill="none" stroke="#fff" stroke-width="5" opacity=".72"/></svg>