<svg xmlns="http://www.w3.org/2000/svg" viewBox="0 0 900 675"><defs><linearGradient id="linen" x1="0" y1="0" x2="1" y2="1"><stop stop-color="#fbf8f2"/><stop offset=".5" stop-color="#e8e0d6"/><stop offset="1" stop-color="#d4c8ba"/></linearGradient><linearGradient id="knit" x1="0" y1="0" x2="0" y2="1"><stop stop-color="#cbdde4"/><stop offset="1" stop-color="#8eafb9"/></linearGradient><linearGradient id="wood" x1="0" y1="0" x2="1" y2="1"><stop stop-color="#e0c7a6"/><stop offset=".55" stop-color="#b99068"/><stop offset="1" stop-color="#835f43"/></linearGradient><filter id="cloth"><feTurbulence type="fractalNoise" baseFrequency=".16 1.1" numOctaves="3" seed="12"/><feColorMatrix values="1 0 0 0 0 0 1 0 0 0 0 0 1 0 0 0 0 0 .13 0"/></filter><filter id="shadow"><feDropShadow dx="0" dy="10" stdDeviation="10" flood-color="#675649" flood-opacity=".25"/></filter><filter id="soft"><feGaussianBlur stdDeviation="6"/></filter></defs><rect width="900" height="675" fill="url(#linen)"/><rect width="900" height="675" filter="url(#cloth)" opacity=".3"/><path d="M0 548c125-37 251 20 372-7 145-32 292 25 528-2v136H0Z" fill="#d7c7be" opacity=".55"/><g transform="translate(38 70)" filter="url(#shadow)"><path d="M0 34C0 15 15 0 34 0h174c19 0 34 15 34 34v224c0 19-15 34-34 34H34C15 292 0 277 0 258Z" fill="#fffaf2" stroke="#c4ad91" stroke-width="8"/><path d="M26 28h190v188H26Z" fill="#d8e5e7"/><path d="M34 243h174" stroke="#b68f69" stroke-width="6" stroke-linecap="round"/><circle cx="121" cy="246" r="5" fill="#8b6547"/></g><g transform="translate(678 58) rotate(8)" filter="url(#shadow)"><path d="M0 33C0 15 15 0 33 0h145c18 0 33 15 33 33v178c0 18-15 33-33 33H33C15 244 0 229 0 211Z" fill="#fffaf4" stroke="#c5b2a0" stroke-width="8"/><path d="M24 26h163v145H24Z" fill="#ead9df"/><path d="M34 201h143" stroke="#a98c75" stroke-width="6" stroke-linecap="round"/></g><g transform="translate(235 445)" filter="url(#shadow)"><path d="M0 86c25-55 87-89 147-74 67 16 104 81 78 139H24C7 135-3 111 0 86Z" fill="url(#knit)" stroke="#789aa4" stroke-width="8"/><path d="M24 80c38 19 80 23 125 11 31-8 57-6 79 5" fill="none" stroke="#dcebed" stroke-width="9" opacity=".7"/><path d="M32 113c45 20 91 21 138 4" fill="none" stroke="#8caeb7" stroke-width="6" opacity=".75"/></g><g transform="translate(525 423)" filter="url(#shadow)"><circle cx="83" cy="78" r="67" fill="#f1dfcf" stroke="#b99c82" stroke-width="7"/><circle cx="63" cy="68" r="7" fill="#685a50"/><circle cx="102" cy="68" r="7" fill="#685a50"/><path d="M65 92c12 10 25 10 37 0" fill="none" stroke="#c88f95" stroke-width="5"/><path d="M27 54C12 25 25 0 46 0c23 0 31 29 24 49M96 49c-7-20 1-49 24-49 21 0 34 25 19 54" fill="#f1dfcf" stroke="#b99c82" stroke-width="7"/></g><g transform="translate(377 85) rotate(-5)" filter="url(#shadow)"><rect width="126" height="126" rx="20" fill="url(#wood)" stroke="#79573e" stroke-width="7"/><path d="M35 95V31h34c24 0 38 12 38 31s-14 33-38 33Z" fill="#f6eee1"/><path d="M69 45H49v36h20c14 0 23-7 23-18s-9-18-23-18Z" fill="#9d7b5f"/></g><g transform="translate(514 116) rotate(6)" filter="url(#shadow)"><rect width="112" height="112" rx="19" fill="#d3b4bc" stroke="#936f78" stroke-width="7"/><circle cx="56" cy="56" r="30" fill="#fff5ef"/><path d="M56 25v62M25 56h62" stroke="#c19099" stroke-width="8" stroke-linecap="round"/></g><g fill="#aab8af" opacity=".42"><circle cx="334" cy="301" r="9"/><circle cx="375" cy="326" r="6"/><circle cx="612" cy="300" r="8"/></g><rect x="24" y="24" width="852" height="627" rx="28" fill="none" stroke="#fff" stroke-width="7" opacity=".65"/></svg>