<svg xmlns="http://www.w3.org/2000/svg" viewBox="0 0 900 675"><defs><linearGradient id="night" x1="0" y1="0" x2="0" y2="1"><stop stop-color="#071424"/><stop offset=".62" stop-color="#173147"/><stop offset="1" stop-color="#30483e"/></linearGradient><linearGradient id="tent" x1="0" y1="0" x2="1" y2="1"><stop stop-color="#c47c4e"/><stop offset="1" stop-color="#7c462e"/></linearGradient><filter id="s"><feDropShadow dx="0" dy="8" stdDeviation="8" flood-opacity=".35"/></filter><filter id="glow"><feGaussianBlur stdDeviation="10"/></filter></defs><rect width="900" height="675" fill="url(#night)"/><g fill="#fff6c9"><circle cx="74" cy="78" r="3"/><circle cx="144" cy="128" r="4"/><circle cx="225" cy="65" r="3"/><circle cx="310" cy="112" r="5"/><circle cx="405" cy="61" r="3"/><circle cx="505" cy="119" r="4"/><circle cx="620" cy="70" r="3"/><circle cx="724" cy="128" r="5"/><circle cx="833" cy="82" r="3"/></g><path d="M0 515 122 401 227 512 355 366 492 508 638 390 770 512 900 420V675H0Z" fill="#203e35"/><path d="M0 555 148 461 265 552 397 448 532 551 694 455 811 553 900 492V675H0Z" fill="#172f29"/><path d="m302 437 53-71 57 75-31-17-26 32-23-27Z" fill="#c6d1d2" opacity=".62"/><g transform="translate(365 425)" filter="url(#s)"><ellipse cx="118" cy="172" rx="160" ry="30" fill="#09120f" opacity=".55"/><path d="M0 159 112 0l116 159Z" fill="url(#tent)" stroke="#57321f" stroke-width="8"/><path d="m112 0 24 159H86Z" fill="#f4d393" stroke="#7f5637" stroke-width="6"/><path d="M112 20v138" stroke="#815338" stroke-width="5"/></g><g transform="translate(112 494)"><ellipse cx="61" cy="75" rx="94" ry="25" fill="#0b1713" opacity=".55"/><circle cx="60" cy="44" r="58" fill="#e8a341" opacity=".18" filter="url(#glow)"/><path d="M8 69c10-69 42-95 62-35 24-77 58-44 48 35Z" fill="#d55f32"/><path d="M36 68c8-44 26-56 37-21 14-47 31-28 27 21Z" fill="#f6bf58"/><path d="M-18 84h156" stroke="#79513a" stroke-width="12"/><path d="m-1 50 118 67M118 50 0 117" stroke="#654330" stroke-width="9"/></g><g fill="#152c25"><path d="m35 605 48-137 48 137Z"/><path d="m759 610 58-167 58 167Z"/><path d="m665 607 39-112 39 112Z"/></g><path d="M88 198c35-24 70-24 105 0" fill="none" stroke="#d8e4de" stroke-width="5" opacity=".45"/><rect x="20" y="20" width="860" height="635" rx="24" fill="none" stroke="#d8c694" stroke-width="5" opacity=".55"/></svg>