<svg xmlns="http://www.w3.org/2000/svg" viewBox="0 0 900 675"><defs><linearGradient id="bg" x1="0" y1="0" x2="1" y2="1"><stop stop-color="#fff5ea"/><stop offset=".5" stop-color="#f2dfdb"/><stop offset="1" stop-color="#d9e6e1"/></linearGradient><linearGradient id="cake" x1="0" y1="0" x2="0" y2="1"><stop stop-color="#f7ddc7"/><stop offset="1" stop-color="#dfa987"/></linearGradient><filter id="s"><feDropShadow dx="0" dy="8" stdDeviation="8" flood-opacity=".24"/></filter><filter id="g"><feTurbulence type="fractalNoise" baseFrequency=".65" numOctaves="3" seed="17"/><feColorMatrix values="1 0 0 0 0 0 1 0 0 0 0 0 1 0 0 0 0 0 .07 0"/></filter></defs><rect width="900" height="675" fill="url(#bg)"/><path d="M22 93c210 93 435 95 856-2" fill="none" stroke="#6f584c" stroke-width="5"/><g filter="url(#s)"><g transform="translate(70 98)"><ellipse cx="65" cy="75" rx="58" ry="73" fill="#b45f70"/><path d="M65 148c-16 109 20 172 3 266" fill="none" stroke="#6e514d" stroke-width="4"/><path d="m65 148-13 16h26Z" fill="#9f5061"/></g><g transform="translate(185 67)"><ellipse cx="65" cy="75" rx="55" ry="70" fill="#5d7f91"/><path d="M65 145c21 112-16 179 5 268" fill="none" stroke="#6e514d" stroke-width="4"/><path d="m65 145-13 16h26Z" fill="#4c6d7f"/></g><g transform="translate(620 72)"><ellipse cx="65" cy="75" rx="56" ry="71" fill="#c49a4f"/><path d="M65 146c-19 112 18 178-4 267" fill="none" stroke="#6e514d" stroke-width="4"/><path d="m65 146-13 16h26Z" fill="#ad823d"/></g><g transform="translate(735 107)"><ellipse cx="65" cy="75" rx="58" ry="74" fill="#68856c"/><path d="M65 149c17 105-19 171 4 262" fill="none" stroke="#6e514d" stroke-width="4"/><path d="m65 149-13 16h26Z" fill="#557159"/></g></g><g transform="translate(302 390)" filter="url(#s)"><ellipse cx="150" cy="183" rx="175" ry="28" fill="#6b5148" opacity=".2"/><path d="M15 91h270l-23 92H38Z" fill="url(#cake)" stroke="#9c6658" stroke-width="7"/><path d="M42 45h216l27 46H15Z" fill="#b76670" stroke="#8f4651" stroke-width="7"/><path d="M54 44c20-30 42-30 63 0 20-30 42-30 63 0 20-30 42-30 63 0" fill="none" stroke="#fff0e3" stroke-width="11" stroke-linecap="round"/><rect x="139" y="-18" width="20" height="61" rx="6" fill="#d9aa4e"/><path d="M149-48c-26 27-18 50 0 50s26-23 0-50Z" fill="#efae3d"/><path d="M149-32c-10 12-7 22 0 22s10-10 0-22Z" fill="#fff2a8"/></g><g fill="#9c6c75"><circle cx="345" cy="225" r="9"/><circle cx="543" cy="285" r="10"/><circle cx="432" cy="192" r="7"/><rect x="394" y="275" width="15" height="48" rx="5" transform="rotate(31 402 299)"/><rect x="522" y="208" width="14" height="42" rx="5" transform="rotate(-25 529 229)"/></g><g fill="#d3a44f"><circle cx="505" cy="342" r="7"/><circle cx="290" cy="315" r="8"/></g><rect width="900" height="675" filter="url(#g)" opacity=".18"/><rect x="20" y="20" width="860" height="635" rx="24" fill="none" stroke="#fff" stroke-width="5" opacity=".7"/></svg>