<svg xmlns="http://www.w3.org/2000/svg" viewBox="0 0 900 675" width="900" height="675" role="img"><defs><filter id="paper"><feTurbulence type="fractalNoise" baseFrequency=".65" numOctaves="4" seed="27" result="n"/><feColorMatrix in="n" values="1 0 0 0 0 0 1 0 0 0 0 0 1 0 0 0 0 0 .12 0"/><feBlend in="SourceGraphic" mode="screen"/></filter><filter id="chalk"><feTurbulence baseFrequency=".9" numOctaves="2" seed="8" result="n"/><feDisplacementMap in="SourceGraphic" in2="n" scale="1.6"/></filter><linearGradient id="bg" x1="0" y1="0" x2="1" y2="1"><stop stop-color="#26332f"/><stop offset=".5" stop-color="#101715"/><stop offset="1" stop-color="#2b3934"/></linearGradient></defs><rect width="900" height="675" fill="url(#bg)"/><g opacity=".16" stroke="#eef0e8" stroke-width="2"><path d="M40 80h820M40 150h820M40 525h820M40 595h820"/><path d="M110 40v595M790 40v595"/></g><g fill="none" stroke="#f5f0df" stroke-linecap="round" filter="url(#chalk)"><path d="M60 145C105 78 172 72 222 126c38 41 90 39 131-4" stroke-width="7"/><path d="M547 553c61-65 141-67 203-5 31 31 62 30 90 9" stroke-width="7"/><path d="M65 565c42-74 97-99 155-76 31 12 55 35 73 70" stroke-width="6"/><path d="M620 102c31-39 72-46 112-21 21 14 37 33 47 59" stroke-width="6"/><path d="M292 92h316M292 582h316" stroke-width="4" stroke-dasharray="13 11"/></g><g transform="translate(69 74)" fill="none" stroke="#e3c985" stroke-width="5" filter="url(#chalk)"><path d="M0 45c22-31 44-31 66 0 22-31 44-31 66 0-23 34-45 56-66 68C45 101 23 79 0 45Z"/><path d="M650 455c22-31 44-31 66 0 22-31 44-31 66 0-23 34-45 56-66 68-21-12-43-34-66-68Z"/></g><g fill="#f5f0df" font-family="Georgia,serif" text-anchor="middle"><text x="450" y="132" font-size="29" font-style="italic" letter-spacing="3">MEMORIES</text><text x="450" y="568" font-size="17" letter-spacing="5" opacity=".78">THE BEST DAYS STAY WITH US</text></g><g fill="#dca7b1" opacity=".85"><circle cx="255" cy="98" r="5"/><circle cx="646" cy="577" r="5"/><circle cx="778" cy="184" r="4"/></g><rect x="24" y="24" width="852" height="627" rx="24" fill="none" stroke="#f5f0df" stroke-width="4" opacity=".75"/><rect width="900" height="675" fill="transparent" filter="url(#paper)"/></svg>