<svg xmlns="http://www.w3.org/2000/svg" viewBox="0 0 900 675"><defs><linearGradient id="slate" x1="0" y1="0" x2="1" y2="1"><stop stop-color="#26302d"/><stop offset=".48" stop-color="#161d1b"/><stop offset="1" stop-color="#0c1110"/></linearGradient><filter id="chalk"><feTurbulence type="fractalNoise" baseFrequency=".7" numOctaves="4" seed="22"/><feColorMatrix values="1 0 0 0 0 0 1 0 0 0 0 0 1 0 0 0 0 0 .18 0"/></filter><filter id="shadow"><feDropShadow dx="0" dy="8" stdDeviation="8" flood-color="#000" flood-opacity=".4"/></filter></defs><rect width="900" height="675" fill="url(#slate)"/><rect width="900" height="675" filter="url(#chalk)" opacity=".42"/><g fill="none" stroke="#f3efe2" stroke-linecap="round"><path d="M66 142c40-76 83-105 130-86 38 16 57 55 44 91-15 41-63 59-107 36-34-18-46-56-29-88" stroke-width="5" opacity=".8"/><path d="M65 142c50 9 101 7 153-6" stroke-width="3" opacity=".6"/><path d="M685 535c32-69 76-99 132-83 40 12 65 49 58 87-8 45-54 72-101 55-40-14-58-51-45-89" stroke-width="5" opacity=".8"/></g><g stroke="#e7d6a2" fill="none" stroke-linecap="round"><path d="M270 86c113 36 228 35 346-2" stroke-width="5"/><path d="M292 104c94 27 193 26 300-2" stroke-width="2" opacity=".65"/><path d="M275 582c111-31 225-31 344 0" stroke-width="5"/><path d="M305 564c91-22 183-22 278 0" stroke-width="2" opacity=".65"/></g><g fill="#f3efe2" opacity=".85"><circle cx="110" cy="510" r="5"/><circle cx="145" cy="543" r="4"/><circle cx="766" cy="113" r="5"/><circle cx="811" cy="147" r="4"/></g><g fill="none" stroke="#f3efe2" stroke-width="4" stroke-linecap="round" opacity=".72"><path d="M91 523c28-43 64-62 108-55M129 548c22-38 52-56 89-54"/><path d="M706 135c34-39 73-52 116-36M733 160c25-31 55-43 90-37"/></g><g transform="translate(48 50)" filter="url(#shadow)"><rect x="0" y="0" width="200" height="255" rx="8" fill="#1b211f" stroke="#e7e2d6" stroke-width="5" stroke-dasharray="3 10"/><rect x="17" y="17" width="166" height="221" rx="4" fill="none" stroke="#d7c58e" stroke-width="3"/></g><g transform="translate(655 368)" filter="url(#shadow)"><rect x="0" y="0" width="200" height="250" rx="8" fill="#1b211f" stroke="#e7e2d6" stroke-width="5" stroke-dasharray="3 10"/><rect x="17" y="17" width="166" height="216" rx="4" fill="none" stroke="#d7c58e" stroke-width="3"/></g><g opacity=".25" stroke="#fff" stroke-width="18" stroke-linecap="round"><path d="M330 250c80-25 161-25 244 0"/><path d="M350 400c64 18 132 18 201-1"/></g><path d="M32 32h836v611H32Z" fill="none" stroke="#f4f0e5" stroke-width="5" stroke-dasharray="2 11" opacity=".8"/><path d="M46 46h808v583H46Z" fill="none" stroke="#d8c995" stroke-width="2" opacity=".65"/></svg>