<svg xmlns="http://www.w3.org/2000/svg" viewBox="0 0 900 675"><defs><linearGradient id="wall" x1="0" y1="0" x2="1" y2="1"><stop stop-color="#e7ddd0"/><stop offset=".55" stop-color="#cbbba6"/><stop offset="1" stop-color="#9e8972"/></linearGradient><linearGradient id="wood" x1="0" y1="0" x2="0" y2="1"><stop stop-color="#76503a"/><stop offset="1" stop-color="#3f291f"/></linearGradient><linearGradient id="pine" x1="0" y1="0" x2="1" y2="1"><stop stop-color="#3f715d"/><stop offset="1" stop-color="#173f34"/></linearGradient><radialGradient id="orn"><stop stop-color="#fff"/><stop offset=".18" stop-color="#e7c37a"/><stop offset="1" stop-color="#9d3d3d"/></radialGradient><filter id="grain"><feTurbulence type="fractalNoise" baseFrequency=".08" numOctaves="4" seed="10"/><feColorMatrix values="1 0 0 0 0 0 1 0 0 0 0 0 1 0 0 0 0 0 .1 0"/></filter><filter id="shadow"><feDropShadow dx="0" dy="10" stdDeviation="10" flood-color="#2d1c16" flood-opacity=".4"/></filter><filter id="glow"><feGaussianBlur stdDeviation="11"/></filter></defs><rect width="900" height="675" fill="url(#wall)"/><rect width="900" height="675" filter="url(#grain)" opacity=".25"/><rect y="526" width="900" height="149" fill="url(#wood)"/><path d="M0 566h900M0 624h900" stroke="#99705a" stroke-width="4" opacity=".4"/><g transform="translate(42 37)" filter="url(#shadow)"><path d="M22 145C8 92 38 36 93 9c53-26 116-16 158 25-31 23-47 53-47 91 0 28 8 55 24 80-68 24-137 22-206-60Z" fill="url(#pine)"/><path d="M35 138c57-28 111-69 161-123M55 172c53-34 101-75 143-123M82 203c42-31 78-66 109-106" fill="none" stroke="#6d957f" stroke-width="8" stroke-linecap="round"/><g fill="url(#orn)"><circle cx="83" cy="78" r="18"/><circle cx="147" cy="105" r="16"/><circle cx="113" cy="157" r="17"/></g><g fill="#d9b86d"><circle cx="60" cy="126" r="8"/><circle cx="180" cy="62" r="8"/><circle cx="174" cy="162" r="8"/></g><path d="M68 25c39 23 79 30 119 21" fill="none" stroke="#b84848" stroke-width="15" stroke-linecap="round"/></g><g transform="translate(650 46) rotate(8)" filter="url(#shadow)"><path d="M0 49c0-27 22-49 49-49h142c27 0 49 22 49 49v168c0 27-22 49-49 49H49c-27 0-49-22-49-49Z" fill="#f9f5ee" stroke="#b99973" stroke-width="8"/><path d="M26 28h188v160H26Z" fill="#d7e1dc"/><path d="M45 221h150" stroke="#9b7655" stroke-width="7" stroke-linecap="round"/></g><g transform="translate(455 430)" filter="url(#shadow)"><rect width="132" height="110" rx="10" fill="#a94747"/><path d="M66 0v110M0 55h132" stroke="#d9bb6d" stroke-width="16"/><path d="M34 0c7-31 26-46 57-43 3 26-5 40-25 43M98 0c-7-31-26-46-57-43-3 26 5 40 25 43" fill="none" stroke="#d9bb6d" stroke-width="12"/></g><g transform="translate(620 452)" filter="url(#shadow)"><rect width="150" height="104" rx="10" fill="#3f6a58"/><path d="M75 0v104M0 52h150" stroke="#d9bb6d" stroke-width="15"/></g><g fill="#ffd97c" opacity=".24" filter="url(#glow)"><circle cx="312" cy="112" r="50"/><circle cx="392" cy="85" r="45"/><circle cx="510" cy="120" r="55"/></g><path d="M255 96c128 51 255 52 382 4" fill="none" stroke="#5b3d2d" stroke-width="5"/><g fill="#f0c86e"><circle cx="286" cy="104" r="10"/><circle cx="365" cy="119" r="10"/><circle cx="448" cy="120" r="10"/><circle cx="532" cy="113" r="10"/><circle cx="612" cy="101" r="10"/></g><g fill="#f9f4ea" opacity=".75"><circle cx="324" cy="273" r="6"/><circle cx="392" cy="330" r="5"/><circle cx="560" cy="292" r="7"/></g><rect x="22" y="22" width="856" height="631" rx="28" fill="none" stroke="#f8ead9" stroke-width="6" opacity=".68"/></svg>