<svg xmlns="http://www.w3.org/2000/svg" viewBox="0 0 900 675"><defs><linearGradient id="bg" x1="0" y1="0" x2="0" y2="1"><stop stop-color="#243b35"/><stop offset=".64" stop-color="#10251f"/><stop offset="1" stop-color="#0b1915"/></linearGradient><linearGradient id="snow" x1="0" y1="0" x2="0" y2="1"><stop stop-color="#fff"/><stop offset="1" stop-color="#d6e3e1"/></linearGradient><filter id="s"><feDropShadow dx="0" dy="8" stdDeviation="8" flood-opacity=".28"/></filter><filter id="g"><feTurbulence type="fractalNoise" baseFrequency=".65" numOctaves="4" seed="27"/><feColorMatrix values="1 0 0 0 0 0 1 0 0 0 0 0 1 0 0 0 0 0 .08 0"/></filter></defs><rect width="900" height="675" fill="url(#bg)"/><path d="M0 535c135-52 238 23 360-14 129-39 247 27 370-3 67-17 117-13 170 7v150H0Z" fill="url(#snow)"/><g transform="translate(88 62)" filter="url(#s)"><path d="M152 0 73 139h45L45 264h55L13 412h279l-88-148h57l-75-125h43Z" fill="#2f694f" stroke="#173b2d" stroke-width="9"/><path d="M151 8 98 139h42L79 262h47L55 402h99Z" fill="#477e63" opacity=".55"/><rect x="134" y="407" width="38" height="78" fill="#68472e"/><g fill="#d8b55e" stroke="#f7e5a1" stroke-width="2"><circle cx="105" cy="247" r="12"/><circle cx="181" cy="186" r="11"/><circle cx="135" cy="330" r="13"/><circle cx="205" cy="300" r="10"/></g><g fill="#b94446" stroke="#f1a1a2" stroke-width="2"><circle cx="145" cy="113" r="11"/><circle cx="84" cy="333" r="10"/><circle cx="205" cy="240" r="12"/></g><path d="M56 296c57 31 124 33 190 6M76 205c42 25 91 26 142 2" fill="none" stroke="#d7c578" stroke-width="7"/><path d="m152-16 9 27 29 1-23 17 8 28-23-16-24 16 9-28-24-17 30-1Z" fill="#e0bd56"/></g><g transform="translate(555 390)" filter="url(#s)"><rect y="38" width="135" height="108" rx="8" fill="#9c3f42"/><path d="M68 38v108M0 88h135" stroke="#d8b665" stroke-width="16"/><path d="M55 39c-44-18-34-62-5-52 15 6 19 25 18 52M80 39c44-18 34-62 5-52-15 6-19 25-18 52" fill="none" stroke="#d8b665" stroke-width="12"/><rect x="155" y="61" width="130" height="99" rx="8" fill="#315c4d"/><path d="M220 61v99M155 110h130" stroke="#d8b665" stroke-width="15"/></g><path d="M570 117c43-31 86-31 129 0 43-31 86-31 129 0" fill="none" stroke="#d6b75f" stroke-width="5"/><g fill="#fff0a8"><circle cx="590" cy="106" r="8"/><circle cx="658" cy="118" r="8"/><circle cx="724" cy="104" r="8"/><circle cx="792" cy="116" r="8"/></g><rect width="900" height="675" filter="url(#g)" opacity=".18"/><rect x="20" y="20" width="860" height="635" rx="24" fill="none" stroke="#fff" stroke-width="5" opacity=".55"/></svg>