<svg xmlns="http://www.w3.org/2000/svg" viewBox="0 0 900 675"><defs><linearGradient id="linen" x1="0" y1="0" x2="1" y2="1"><stop stop-color="#fff9f1"/><stop offset=".5" stop-color="#eadfd7"/><stop offset="1" stop-color="#d1c3b9"/></linearGradient><linearGradient id="grass" x1="0" y1="0" x2="0" y2="1"><stop stop-color="#b9c8a7"/><stop offset="1" stop-color="#758a67"/></linearGradient><radialGradient id="egg1"><stop stop-color="#f8e1e8"/><stop offset="1" stop-color="#c58ea3"/></radialGradient><radialGradient id="egg2"><stop stop-color="#e4f2ed"/><stop offset="1" stop-color="#75a799"/></radialGradient><radialGradient id="egg3"><stop stop-color="#fff0bd"/><stop offset="1" stop-color="#c69a45"/></radialGradient><filter id="cloth"><feTurbulence type="fractalNoise" baseFrequency=".18 1.1" numOctaves="3" seed="21"/><feColorMatrix values="1 0 0 0 0 0 1 0 0 0 0 0 1 0 0 0 0 0 .12 0"/></filter><filter id="shadow"><feDropShadow dx="0" dy="10" stdDeviation="10" flood-color="#635548" flood-opacity=".26"/></filter></defs><rect width="900" height="675" fill="url(#linen)"/><rect width="900" height="675" filter="url(#cloth)" opacity=".3"/><path d="M0 523c151-44 289 18 438-12 160-32 301 23 462-1v165H0Z" fill="url(#grass)" opacity=".8"/><g transform="translate(54 55)" filter="url(#shadow)"><path d="M35 0h166c19 0 35 16 35 35v215c0 19-16 35-35 35H35C16 285 0 269 0 250V35C0 16 16 0 35 0Z" fill="#fffaf2" stroke="#c4b49f" stroke-width="8"/><path d="M26 27h184v173H26Z" fill="#d8e7df"/><path d="M39 238h158" stroke="#9d8167" stroke-width="6" stroke-linecap="round"/></g><g transform="translate(675 65) rotate(7)" filter="url(#shadow)"><path d="M31 0h159c17 0 31 14 31 31v184c0 17-14 31-31 31H31C14 246 0 232 0 215V31C0 14 14 0 31 0Z" fill="#fffaf4" stroke="#c7b7a4" stroke-width="8"/><path d="M24 25h173v151H24Z" fill="#eadce4"/></g><g transform="translate(235 435)" filter="url(#shadow)"><ellipse cx="75" cy="83" rx="55" ry="78" fill="url(#egg1)" stroke="#a36e82" stroke-width="6"/><path d="M38 69c23 18 48 23 75 14M42 102c25-13 48-15 70-4" fill="none" stroke="#f8eef2" stroke-width="7"/><ellipse cx="190" cy="96" rx="55" ry="78" fill="url(#egg2)" stroke="#5b887c" stroke-width="6"/><path d="M156 74c22 16 46 20 72 11M159 109c23-12 45-13 66-2" fill="none" stroke="#eaf7f2" stroke-width="7"/><ellipse cx="307" cy="79" rx="55" ry="78" fill="url(#egg3)" stroke="#9c783b" stroke-width="6"/><path d="M273 62c22 15 45 18 70 9M274 94c23-11 46-12 67-2" fill="none" stroke="#fff6d3" stroke-width="7"/></g><g transform="translate(560 390)" filter="url(#shadow)"><path d="M76 128c-41-25-57-76-34-117 25-45 83-59 126-29 38 27 48 82 20 120-29 39-79 48-112 26Z" fill="#f1e6d8" stroke="#b7a18c" stroke-width="7"/><path d="M70 25C46-26 58-70 91-72c35-2 46 47 27 93M139 22c-16-43-4-90 31-87 34 3 41 49 17 96" fill="#f1e6d8" stroke="#b7a18c" stroke-width="7"/><circle cx="94" cy="75" r="6" fill="#5c514a"/><circle cx="137" cy="75" r="6" fill="#5c514a"/><path d="M101 99c10 9 20 9 30 0" fill="none" stroke="#c88f94" stroke-width="5"/></g><g fill="none" stroke="#758b6a" stroke-width="8" stroke-linecap="round"><path d="M95 583c21-73 52-119 94-139M126 590c16-62 40-103 72-123M814 584c-18-68-47-112-86-133"/></g><g fill="#91a985"><path d="M142 507c-41-11-63-38-65-81 38 7 61 34 65 81Z"/><path d="M761 502c41-8 66-33 74-75-37 4-62 29-74 75Z"/></g><g fill="#cda8b7" opacity=".65"><circle cx="370" cy="331" r="9"/><circle cx="435" cy="350" r="6"/><circle cx="507" cy="322" r="8"/></g><rect x="22" y="22" width="856" height="631" rx="28" fill="none" stroke="#fff" stroke-width="6" opacity=".68"/></svg>