<svg xmlns="http://www.w3.org/2000/svg" viewBox="0 0 900 675"><defs><linearGradient id="bg" x1="0" y1="0" x2="1" y2="1"><stop stop-color="#fff7ed"/><stop offset=".55" stop-color="#f5dfeb"/><stop offset="1" stop-color="#dceee4"/></linearGradient><linearGradient id="grass" x1="0" y1="0" x2="0" y2="1"><stop stop-color="#aacb9e"/><stop offset="1" stop-color="#6e9975"/></linearGradient><filter id="s"><feDropShadow dx="0" dy="8" stdDeviation="8" flood-opacity=".24"/></filter><filter id="g"><feTurbulence type="fractalNoise" baseFrequency=".65" numOctaves="3" seed="13"/><feColorMatrix values="1 0 0 0 0 0 1 0 0 0 0 0 1 0 0 0 0 0 .07 0"/></filter></defs><rect width="900" height="675" fill="url(#bg)"/><path d="M0 505c135-37 269 22 405-8 145-32 287 24 495-6v184H0Z" fill="url(#grass)"/><g transform="translate(80 205)" filter="url(#s)"><ellipse cx="142" cy="206" rx="103" ry="130" fill="#f7f2ea" stroke="#cdbeb0" stroke-width="7"/><ellipse cx="91" cy="54" rx="37" ry="128" fill="#f7f2ea" stroke="#cdbeb0" stroke-width="7" transform="rotate(-13 91 54)"/><ellipse cx="193" cy="54" rx="37" ry="128" fill="#f7f2ea" stroke="#cdbeb0" stroke-width="7" transform="rotate(13 193 54)"/><ellipse cx="91" cy="55" rx="18" ry="92" fill="#e9b7c8" opacity=".65" transform="rotate(-13 91 54)"/><ellipse cx="193" cy="55" rx="18" ry="92" fill="#e9b7c8" opacity=".65" transform="rotate(13 193 54)"/><circle cx="104" cy="184" r="10" fill="#4c423b"/><circle cx="180" cy="184" r="10" fill="#4c423b"/><ellipse cx="142" cy="210" rx="15" ry="11" fill="#d99aa8"/><path d="M129 214q13 18 26 0M142 228v20m0 0c-17 20-34 20-51 0m51 0c17 20 34 20 51 0" fill="none" stroke="#9d7775" stroke-width="7" stroke-linecap="round"/></g><g transform="translate(485 390)" filter="url(#s)"><ellipse cx="52" cy="88" rx="52" ry="72" fill="#b66f8d" stroke="#76485f" stroke-width="6"/><path d="M18 86c20-17 48-17 69 0M20 111c19-13 44-13 64 0" fill="none" stroke="#f5d9e4" stroke-width="7"/><ellipse cx="165" cy="105" rx="52" ry="72" fill="#6f9e91" stroke="#416c61" stroke-width="6"/><path d="M132 96c20-17 47-17 68 0M133 122c20-13 45-13 65 0" fill="none" stroke="#dff2ea" stroke-width="7"/><ellipse cx="278" cy="82" rx="52" ry="72" fill="#d0a151" stroke="#8b672f" stroke-width="6"/><path d="M245 73c20-17 47-17 68 0M246 99c20-13 45-13 65 0" fill="none" stroke="#fff0c9" stroke-width="7"/></g><g fill="#d89eb8"><path d="M410 135c18-35 52-39 71-7 19-32 53-28 71 7-36 8-72 8-107 0-12 14-23 27-35 39 3-14 3-27 0-39Z"/></g><g fill="#fff" opacity=".75"><ellipse cx="170" cy="105" rx="120" ry="42"/><ellipse cx="690" cy="135" rx="145" ry="50"/></g><rect width="900" height="675" filter="url(#g)" opacity=".18"/><rect x="20" y="20" width="860" height="635" rx="24" fill="none" stroke="#fff" stroke-width="5" opacity=".65"/></svg>