<svg xmlns="http://www.w3.org/2000/svg" viewBox="0 0 900 675"><defs><linearGradient id="night" x1="0" y1="0" x2="1" y2="1"><stop stop-color="#211b28"/><stop offset=".55" stop-color="#342538"/><stop offset="1" stop-color="#151018"/></linearGradient><radialGradient id="pumpkin"><stop stop-color="#f0a153"/><stop offset=".65" stop-color="#c6602f"/><stop offset="1" stop-color="#75321f"/></radialGradient><radialGradient id="flame"><stop stop-color="#fff5bd"/><stop offset=".45" stop-color="#f0b24a"/><stop offset="1" stop-color="#b34c28"/></radialGradient><filter id="grain"><feTurbulence type="fractalNoise" baseFrequency=".11" numOctaves="4" seed="16"/><feColorMatrix values="1 0 0 0 0 0 1 0 0 0 0 0 1 0 0 0 0 0 .13 0"/></filter><filter id="shadow"><feDropShadow dx="0" dy="12" stdDeviation="11" flood-color="#000" flood-opacity=".55"/></filter><filter id="glow"><feGaussianBlur stdDeviation="16"/></filter></defs><rect width="900" height="675" fill="url(#night)"/><rect width="900" height="675" filter="url(#grain)" opacity=".32"/><circle cx="735" cy="112" r="76" fill="#d9d0c1" opacity=".8"/><circle cx="712" cy="93" r="9" fill="#b5aa9a" opacity=".5"/><circle cx="758" cy="128" r="12" fill="#b5aa9a" opacity=".45"/><path d="M0 535c145-48 282 15 421-17 143-33 298 24 479-2v159H0Z" fill="#2b2529"/><g transform="translate(70 405)" filter="url(#shadow)"><ellipse cx="129" cy="105" rx="126" ry="91" fill="url(#pumpkin)" stroke="#632817" stroke-width="8"/><path d="M129 19c-34 19-52 49-52 86 0 36 18 66 52 89m0-175c34 19 52 49 52 86 0 36-18 66-52 89" fill="none" stroke="#9e4423" stroke-width="10"/><path d="M129 21c-4-40 14-65 53-76" fill="none" stroke="#526044" stroke-width="17"/><path d="m72 94 31-24 27 29M153 98l29-28 32 24M94 140c23 23 48 23 73 0" fill="none" stroke="#342018" stroke-width="13" stroke-linecap="round"/></g><g transform="translate(600 445)" filter="url(#shadow)"><ellipse cx="100" cy="83" rx="97" ry="71" fill="#d07b3a" stroke="#74401e" stroke-width="8"/><path d="M100 16c-27 15-41 38-41 67 0 29 14 53 41 70m0-137c27 15 41 38 41 67 0 29-14 53-41 70" fill="none" stroke="#a45e2c" stroke-width="9"/><path d="M100 18c-3-31 12-51 43-61" fill="none" stroke="#526044" stroke-width="15"/></g><g transform="translate(405 405)" filter="url(#shadow)"><rect x="0" y="44" width="62" height="143" rx="12" fill="#e6d7bd" stroke="#846f57" stroke-width="6"/><path d="M31 0c28 30 29 58 0 83-29-25-28-53 0-83Z" fill="url(#flame)"/><circle cx="31" cy="45" r="56" fill="#f4a74c" opacity=".2" filter="url(#glow)"/></g><g transform="translate(40 56)" filter="url(#shadow)"><path d="M0 57c0-31 25-57 57-57h151c31 0 57 26 57 57v174c0 31-26 57-57 57H57c-32 0-57-26-57-57Z" fill="#1b171d" stroke="#76606f" stroke-width="8"/><path d="M27 29h211v179H27Z" fill="#403542"/><path d="M44 244h177" stroke="#8e7380" stroke-width="7" stroke-linecap="round"/></g><g fill="#7d5843" opacity=".75"><path d="M310 544c37-63 82-80 135-52-26 50-76 72-135 52Z"/><path d="M766 569c31-52 69-68 114-48-20 46-62 66-114 48Z"/></g><g fill="none" stroke="#827086" stroke-width="7" opacity=".65"><path d="M505 137c34-54 73-57 116-9M546 172c31-47 67-48 106-4"/></g><rect x="22" y="22" width="856" height="631" rx="28" fill="none" stroke="#a88e9d" stroke-width="5" opacity=".55"/></svg>