<svg xmlns="http://www.w3.org/2000/svg" viewBox="0 0 900 675"><defs><linearGradient id="bg" x1="0" y1="0" x2="0" y2="1"><stop stop-color="#171121"/><stop offset=".65" stop-color="#2b1b34"/><stop offset="1" stop-color="#120d18"/></linearGradient><radialGradient id="moon"><stop stop-color="#fff5d9"/><stop offset=".7" stop-color="#d8c8a8"/><stop offset="1" stop-color="#a59073"/></radialGradient><radialGradient id="pumpkin"><stop stop-color="#f39a43"/><stop offset=".75" stop-color="#c75e23"/><stop offset="1" stop-color="#773417"/></radialGradient><filter id="s"><feDropShadow dx="0" dy="8" stdDeviation="8" flood-opacity=".32"/></filter><filter id="g"><feTurbulence type="fractalNoise" baseFrequency=".65" numOctaves="3" seed="19"/><feColorMatrix values="1 0 0 0 0 0 1 0 0 0 0 0 1 0 0 0 0 0 .08 0"/></filter></defs><rect width="900" height="675" fill="url(#bg)"/><circle cx="725" cy="125" r="91" fill="url(#moon)"/><g fill="#9b8d76" opacity=".42"><circle cx="700" cy="98" r="14"/><circle cx="758" cy="144" r="20"/><circle cx="690" cy="163" r="10"/></g><path d="M0 540c142-55 267 11 398-20 131-31 256 28 502-6v161H0Z" fill="#342d37"/><g transform="translate(85 315)" filter="url(#s)"><ellipse cx="145" cy="129" rx="138" ry="112" fill="url(#pumpkin)" stroke="#703312" stroke-width="9"/><path d="M145 20c-34 20-53 60-53 108 0 49 19 91 53 112m0-220c34 20 53 60 53 108 0 49-19 91-53 112" fill="none" stroke="#a94b1c" stroke-width="10"/><path d="M145 19c0-41 18-65 54-73" fill="none" stroke="#536043" stroke-width="18"/><path d="m62 112 45-34 28 47m18 0 30-47 45 34M81 164c42 42 86 42 128 0" fill="none" stroke="#3a1d15" stroke-width="18" stroke-linejoin="round"/><path d="M89 167c37 26 75 26 112 0" stroke="#f6c75c" stroke-width="8"/></g><g transform="translate(587 337)" filter="url(#s)"><path d="M22 211c6-101 36-170 91-207 55 37 85 106 91 207Z" fill="#111017" stroke="#625168" stroke-width="7"/><path d="M52 33 96-16l24 49 52-29-16 59H67Z" fill="#111017"/><path d="M73 105c16-18 32-18 48 0m26 0c16-18 32-18 48 0" fill="none" stroke="#f0d27a" stroke-width="9"/><path d="M91 151c26 20 52 20 78 0" fill="none" stroke="#8d6b95" stroke-width="7"/></g><g fill="#0c0a0e"><path d="M420 155c24-30 51-30 75 0-26-8-51-8-75 0Zm70 34c21-25 43-25 64 0-22-7-43-7-64 0Z"/></g><rect width="900" height="675" filter="url(#g)" opacity=".18"/><rect x="20" y="20" width="860" height="635" rx="24" fill="none" stroke="#a98aaf" stroke-width="5" opacity=".6"/></svg>