<svg xmlns="http://www.w3.org/2000/svg" viewBox="0 0 900 675"><defs><linearGradient id="wall" x1="0" y1="0" x2="1" y2="1"><stop stop-color="#c9a780"/><stop offset=".55" stop-color="#a97858"/><stop offset="1" stop-color="#77503a"/></linearGradient><linearGradient id="wood" x1="0" y1="0" x2="0" y2="1"><stop stop-color="#70482f"/><stop offset=".45" stop-color="#4d2f22"/><stop offset="1" stop-color="#2b1b16"/></linearGradient><linearGradient id="glass" x1="0" y1="0" x2="1" y2="1"><stop stop-color="#fff" stop-opacity=".86"/><stop offset=".55" stop-color="#dbe7e8" stop-opacity=".32"/><stop offset="1" stop-color="#fff" stop-opacity=".68"/></linearGradient><radialGradient id="lime"><stop stop-color="#dbe984"/><stop offset=".7" stop-color="#80a44a"/><stop offset="1" stop-color="#496d31"/></radialGradient><filter id="grain"><feTurbulence type="fractalNoise" baseFrequency=".06" numOctaves="4" seed="15"/><feColorMatrix values="1 0 0 0 0 0 1 0 0 0 0 0 1 0 0 0 0 0 .12 0"/></filter><filter id="shadow"><feDropShadow dx="0" dy="12" stdDeviation="10" flood-color="#1f120c" flood-opacity=".45"/></filter><filter id="glow"><feGaussianBlur stdDeviation="12"/></filter></defs><rect width="900" height="675" fill="url(#wall)"/><rect width="900" height="675" filter="url(#grain)" opacity=".28"/><rect y="430" width="900" height="245" fill="url(#wood)"/><path d="M0 468h900M0 552h900M0 633h900" stroke="#8d6040" stroke-width="4" opacity=".45"/><path d="M80 95c180 46 354 46 528 3 83-20 155-17 222 3" fill="none" stroke="#39251c" stroke-width="6"/><g fill="#f2c66f"><circle cx="97" cy="101" r="13"/><circle cx="226" cy="121" r="13"/><circle cx="370" cy="127" r="13"/><circle cx="518" cy="120" r="13"/><circle cx="659" cy="101" r="13"/><circle cx="801" cy="99" r="13"/></g><g fill="#ffcf6d" opacity=".28" filter="url(#glow)"><circle cx="97" cy="101" r="40"/><circle cx="370" cy="127" r="40"/><circle cx="659" cy="101" r="40"/></g><g transform="translate(118 170)" filter="url(#shadow)"><path d="M35 0h165l-28 245H63Z" fill="url(#glass)" stroke="#f8f0e7" stroke-width="7"/><path d="M56 82h123l-17 139H72Z" fill="#b7433e" opacity=".9"/><path d="M118 245v96M65 341h106" stroke="#e7e0d7" stroke-width="10" stroke-linecap="round"/><ellipse cx="117" cy="83" rx="62" ry="14" fill="#ef8271"/><circle cx="176" cy="54" r="31" fill="url(#lime)" stroke="#d9e7a6" stroke-width="5"/><path d="M176 25v58M147 54h58" stroke="#f1f4c8" stroke-width="3"/></g><g transform="translate(560 160)" filter="url(#shadow)"><path d="M18 18h171l-30 227H48Z" fill="url(#glass)" stroke="#f8f0e7" stroke-width="7"/><path d="M42 91h125l-18 132H61Z" fill="#d5902d" opacity=".92"/><path d="M104 245v98M52 343h105" stroke="#e7e0d7" stroke-width="10" stroke-linecap="round"/><ellipse cx="104" cy="91" rx="62" ry="14" fill="#edb15f"/><path d="M132 15c-5-53 13-95 55-129" stroke="#5e4030" stroke-width="7" fill="none"/><circle cx="161" cy="43" r="26" fill="#d54b48" stroke="#8b2c2a" stroke-width="5"/></g><g transform="translate(361 417)" filter="url(#shadow)"><path d="M0 42c54-46 126-50 188-8-20 52-60 80-104 81-45 1-75-21-84-73Z" fill="#e1b26a"/><path d="M34 47c39-21 76-22 113-4" fill="none" stroke="#f3d89a" stroke-width="7"/><path d="M20 94h151" stroke="#9a673f" stroke-width="8" stroke-linecap="round"/></g><g fill="#718b56" filter="url(#shadow)"><path d="M57 540c36-54 78-69 126-45-20 45-66 71-126 45Z"/><path d="M717 565c33-54 77-67 128-38-28 43-74 61-128 38Z"/></g><g fill="#d9b069"><circle cx="327" cy="555" r="7"/><circle cx="398" cy="592" r="5"/><circle cx="500" cy="560" r="8"/></g><rect x="22" y="22" width="856" height="631" rx="26" fill="none" stroke="#f7e2be" stroke-width="5" opacity=".6"/></svg>