<svg xmlns="http://www.w3.org/2000/svg" viewBox="0 0 900 675"><defs><linearGradient id="bg" x1="0" y1="0" x2="1" y2="1"><stop stop-color="#f4d7b2"/><stop offset=".5" stop-color="#d9a578"/><stop offset="1" stop-color="#9b6750"/></linearGradient><linearGradient id="red" x1="0" y1="0" x2="0" y2="1"><stop stop-color="#d76a62"/><stop offset="1" stop-color="#8f2f37"/></linearGradient><linearGradient id="gold" x1="0" y1="0" x2="0" y2="1"><stop stop-color="#f2cb64"/><stop offset="1" stop-color="#c47e2d"/></linearGradient><filter id="s"><feDropShadow dx="0" dy="8" stdDeviation="8" flood-opacity=".28"/></filter><filter id="g"><feTurbulence type="fractalNoise" baseFrequency=".65" numOctaves="3" seed="14"/><feColorMatrix values="1 0 0 0 0 0 1 0 0 0 0 0 1 0 0 0 0 0 .07 0"/></filter></defs><rect width="900" height="675" fill="url(#bg)"/><rect y="462" width="900" height="213" fill="#624431"/><path d="M0 93c211 87 434 88 900-4" fill="none" stroke="#4f3628" stroke-width="5"/><g fill="#ffd571"><circle cx="84" cy="105" r="11"/><circle cx="254" cy="135" r="11"/><circle cx="446" cy="146" r="11"/><circle cx="644" cy="133" r="11"/><circle cx="814" cy="104" r="11"/></g><g transform="translate(105 182)" filter="url(#s)"><path d="M25 0h196l-40 241H65Z" fill="#fbf4ec" fill-opacity=".75" stroke="#503a31" stroke-width="8"/><path d="M49 81h148l-27 135H76Z" fill="url(#red)"/><path d="M123 241v87M75 328h96" stroke="#503a31" stroke-width="9"/><path d="M194 32c18-35 46-46 82-33" fill="none" stroke="#6d8e59" stroke-width="12"/><circle cx="211" cy="51" r="27" fill="#80a164" stroke="#4e7141" stroke-width="6"/><path d="M210 24v54M184 51h54" stroke="#edf4df" stroke-width="4"/></g><g transform="translate(545 174)" filter="url(#s)"><path d="M20 0h198l-35 248H55Z" fill="#fbf4ec" fill-opacity=".78" stroke="#503a31" stroke-width="8"/><path d="M43 83h153l-22 140H64Z" fill="url(#gold)"/><path d="M119 248v83M72 331h95" stroke="#503a31" stroke-width="9"/><path d="M189 34c20-34 49-44 84-28" fill="none" stroke="#6d8e59" stroke-width="12"/><circle cx="207" cy="54" r="27" fill="#e9c34d" stroke="#a97529" stroke-width="6"/><path d="M207 27v54M180 54h54" stroke="#fff4be" stroke-width="4"/></g><g transform="translate(323 446)" filter="url(#s)"><path d="M0 70h255l-35 96H35Z" fill="#bf8b57" stroke="#69472f" stroke-width="7"/><path d="M34 40h187l34 30H0Z" fill="#e5b77e" stroke="#8b5e3d" stroke-width="7"/><g fill="#d5a449"><circle cx="65" cy="41" r="22"/><circle cx="126" cy="34" r="24"/><circle cx="187" cy="42" r="22"/></g></g><g fill="#f4cf74"><circle cx="90" cy="574" r="7"/><circle cx="773" cy="585" r="7"/></g><rect width="900" height="675" filter="url(#g)" opacity=".18"/><rect x="20" y="20" width="860" height="635" rx="24" fill="none" stroke="#f7dfbd" stroke-width="5" opacity=".7"/></svg>