<svg xmlns="http://www.w3.org/2000/svg" viewBox="0 0 900 675"><defs><linearGradient id="sky" x1="0" y1="0" x2="0" y2="1"><stop stop-color="#8fb7c7"/><stop offset=".55" stop-color="#d7cfbd"/><stop offset="1" stop-color="#e5b77c"/></linearGradient><linearGradient id="water" x1="0" y1="0" x2="0" y2="1"><stop stop-color="#528ca1"/><stop offset="1" stop-color="#28576c"/></linearGradient><radialGradient id="sun"><stop stop-color="#fff6c8"/><stop offset=".5" stop-color="#e8b75c"/><stop offset="1" stop-color="#e8b75c" stop-opacity="0"/></radialGradient><filter id="s"><feDropShadow dx="0" dy="9" stdDeviation="9" flood-opacity=".3"/></filter><filter id="g"><feTurbulence type="fractalNoise" baseFrequency=".65" numOctaves="3" seed="18"/><feColorMatrix values="1 0 0 0 0 0 1 0 0 0 0 0 1 0 0 0 0 0 .07 0"/></filter></defs><rect width="900" height="675" fill="url(#sky)"/><circle cx="125" cy="385" r="112" fill="url(#sun)"/><path d="M0 413c138-43 253 19 376-13 136-35 253 25 387-7 58-14 98-12 137 0v282H0Z" fill="url(#water)"/><path d="M0 465c149-38 268 22 397-8 144-33 278 20 503-7" fill="none" stroke="#f6e7ca" stroke-width="14" opacity=".63"/><path d="M0 552c170-40 299 15 456-10 152-25 286 18 444-5v138H0Z" fill="#8c7051"/><g transform="translate(602 77)" filter="url(#s)"><path d="M56 86h104l46 448H10Z" fill="#f6efe4" stroke="#713b37" stroke-width="10"/><path d="M28 318h159l9 83H19Z" fill="#9d433d"/><path d="M48 86h120v75H40Z" fill="#31596c" stroke="#202f37" stroke-width="8"/><path d="M34 0h147l38 87H0Z" fill="#623631" stroke="#37221f" stroke-width="8"/><path d="M38 33h142" stroke="#b98c65" stroke-width="8"/><path d="M36 163h137M25 402h173" stroke="#c6b8a4" stroke-width="7"/><rect x="87" y="455" width="43" height="79" rx="4" fill="#56433a"/><rect x="73" y="228" width="30" height="54" rx="4" fill="#5f7881"/><rect x="124" y="228" width="30" height="54" rx="4" fill="#5f7881"/><path d="M41 123-174 49M167 123 385 35" stroke="#fff1a9" stroke-width="28" opacity=".38"/></g><g transform="translate(440 492)" fill="#7b5f43" filter="url(#s)"><path d="M0 105c50-78 119-94 185-48-64 6-118 32-163 78-20-4-28-14-22-30Z"/><path d="M220 122c38-61 91-74 142-38-49 4-91 25-126 61-15-3-22-10-16-23Z"/></g><g fill="#fff" opacity=".45"><path d="M183 113c35-23 70-23 105 0"/><path d="M337 171c27-18 54-18 81 0"/></g><rect width="900" height="675" filter="url(#g)" opacity=".18"/><rect x="20" y="20" width="860" height="635" rx="24" fill="none" stroke="#fff" stroke-width="5" opacity=".65"/></svg>