<svg xmlns="http://www.w3.org/2000/svg" viewBox="0 0 900 675"><defs><linearGradient id="bg" x1="0" y1="0" x2="1" y2="1"><stop stop-color="#fffdf7"/><stop offset=".55" stop-color="#efe6d6"/><stop offset="1" stop-color="#d8c8ae"/></linearGradient><filter id="cloth"><feTurbulence baseFrequency=".015 .08" numOctaves="2" seed="3" result="t"/><feDisplacementMap in="SourceGraphic" in2="t" scale="8"/></filter><filter id="s"><feDropShadow dx="0" dy="7" stdDeviation="7" flood-opacity=".25"/></filter></defs><rect width="900" height="675" fill="url(#bg)"/><g transform="translate(-35 30) rotate(-3 450 200)" filter="url(#cloth)"><path d="M0 65c170-58 300 40 458-5 156-44 287 45 477-7" fill="none" stroke="#a92c3b" stroke-width="58"/><path d="M0 137c170-58 300 40 458-5 156-44 287 45 477-7" fill="none" stroke="#fffef8" stroke-width="58"/><path d="M0 209c170-58 300 40 458-5 156-44 287 45 477-7" fill="none" stroke="#2f4c7d" stroke-width="58"/></g><rect x="58" y="58" width="255" height="165" rx="8" fill="#2f4c7d" transform="rotate(-3 185 140)" filter="url(#s)"/><g fill="#fff" transform="translate(75 68) rotate(-3 120 70)"><path d="m20 10 6 13 15 2-11 10 3 15-13-7-13 7 3-15L0 25l14-2Z"/><path d="m80 10 6 13 15 2-11 10 3 15-13-7-13 7 3-15-11-10 15-2Z"/><path d="m140 10 6 13 15 2-11 10 3 15-13-7-13 7 3-15-11-10 15-2Z"/><path d="m200 10 6 13 15 2-11 10 3 15-13-7-13 7 3-15-11-10 15-2Z"/><path d="m50 70 6 13 15 2-11 10 3 15-13-7-13 7 3-15-11-10 15-2Z"/><path d="m110 70 6 13 15 2-11 10 3 15-13-7-13 7 3-15-11-10 15-2Z"/><path d="m170 70 6 13 15 2-11 10 3 15-13-7-13 7 3-15-11-10 15-2Z"/></g><g transform="translate(118 430)" filter="url(#s)"><path d="M0 115C35 34 87 5 156 30c-63 22-107 67-132 126-18-7-26-21-24-41Z" fill="#bd3845" stroke="#7d2630" stroke-width="7"/><path d="M161 26c47-25 96-11 131 40-55-13-103 2-145 44-11-26-7-54 14-84Z" fill="#2f4c7d" stroke="#20365b" stroke-width="7"/><path d="M70 117c35-50 82-66 140-47-46 11-81 38-106 82-20-4-31-16-34-35Z" fill="#fffdf5" stroke="#c8bca6" stroke-width="7"/></g><g fill="#a92c3b" opacity=".7"><circle cx="650" cy="495" r="7"/><circle cx="720" cy="545" r="5"/><circle cx="795" cy="470" r="6"/></g><rect x="20" y="20" width="860" height="635" rx="24" fill="none" stroke="#fff" stroke-width="5" opacity=".75"/></svg>