<svg xmlns="http://www.w3.org/2000/svg" viewBox="0 0 900 675"><defs><linearGradient id="canvas" x1="0" y1="0" x2="1" y2="1"><stop stop-color="#f5f1e8"/><stop offset=".55" stop-color="#ded5c7"/><stop offset="1" stop-color="#b9aa96"/></linearGradient><linearGradient id="red" x1="0" y1="0" x2="1" y2="1"><stop stop-color="#c24b52"/><stop offset="1" stop-color="#7f2630"/></linearGradient><linearGradient id="blue" x1="0" y1="0" x2="1" y2="1"><stop stop-color="#536d99"/><stop offset="1" stop-color="#263d69"/></linearGradient><linearGradient id="metal" x1="0" y1="0" x2="1" y2="1"><stop stop-color="#fff2bd"/><stop offset=".45" stop-color="#bd9147"/><stop offset=".72" stop-color="#f1d47e"/><stop offset="1" stop-color="#765321"/></linearGradient><filter id="weave"><feTurbulence type="fractalNoise" baseFrequency=".22 1.4" numOctaves="3" seed="6"/><feColorMatrix values="1 0 0 0 0 0 1 0 0 0 0 0 1 0 0 0 0 0 .14 0"/></filter><filter id="shadow"><feDropShadow dx="0" dy="10" stdDeviation="10" flood-color="#2b2d36" flood-opacity=".3"/></filter></defs><rect width="900" height="675" fill="url(#canvas)"/><rect width="900" height="675" filter="url(#weave)" opacity=".34"/><path d="M0 53c145 54 289 54 432 0 148-56 303-52 468 10v103c-159-53-312-57-460-8-146 49-293 50-440 1Z" fill="url(#red)" filter="url(#shadow)"/><path d="M0 139c147 49 294 48 440-1 148-49 301-45 460 8v73c-160-48-312-50-458-6-150 45-297 46-442 1Z" fill="#f9f5ed"/><path d="M0 207c147 46 294 45 442 0 146-44 298-42 458 6v82c-159-42-310-42-454-1-150 43-299 43-446 0Z" fill="url(#blue)" filter="url(#shadow)"/><g transform="translate(55 374)" filter="url(#shadow)"><path d="m95 0 25 58 62 6-47 42 14 61-54-32-54 32 14-61L8 64l62-6Z" fill="url(#metal)" stroke="#735020" stroke-width="7"/><path d="m95 35 13 31 34 3-26 23 8 33-29-17-29 17 8-33-26-23 34-3Z" fill="#f6e5a8" opacity=".65"/></g><g transform="translate(674 394)" filter="url(#shadow)"><path d="m88 0 23 54 58 6-44 39 13 57-50-30-50 30 13-57L7 60l58-6Z" fill="url(#metal)" stroke="#735020" stroke-width="7"/></g><g transform="translate(280 455) rotate(-6)" filter="url(#shadow)"><rect width="340" height="97" rx="14" fill="#f8f4eb" stroke="#a99a84" stroke-width="7"/><path d="M0 32h340M0 65h340" stroke="#bf414a" stroke-width="22"/><rect x="0" width="130" height="97" rx="10" fill="#344d79"/><g fill="#fff"><circle cx="25" cy="22" r="5"/><circle cx="60" cy="22" r="5"/><circle cx="95" cy="22" r="5"/><circle cx="42" cy="47" r="5"/><circle cx="78" cy="47" r="5"/><circle cx="25" cy="73" r="5"/><circle cx="60" cy="73" r="5"/><circle cx="95" cy="73" r="5"/></g></g><g fill="#a33a43" opacity=".7"><circle cx="355" cy="363" r="8"/><circle cx="432" cy="390" r="6"/><circle cx="535" cy="354" r="8"/></g><g fill="none" stroke="#7c654a" stroke-width="8" stroke-linecap="round"><path d="M58 596c38-73 82-110 132-112M844 598c-35-72-77-111-127-117"/></g><g fill="#87937c"><path d="M121 525c-42-9-68-34-76-75 38 4 64 29 76 75Z"/><path d="M774 524c41-9 66-34 74-75-37 4-62 29-74 75Z"/></g><rect x="22" y="22" width="856" height="631" rx="28" fill="none" stroke="#fff" stroke-width="6" opacity=".7"/></svg>