<svg xmlns="http://www.w3.org/2000/svg" viewBox="0 0 900 675"><defs><linearGradient id="linen" x1="0" y1="0" x2="1" y2="1"><stop stop-color="#eee7db"/><stop offset=".52" stop-color="#d9cfbf"/><stop offset="1" stop-color="#c4b6a2"/></linearGradient><linearGradient id="leather" x1="0" y1="0" x2="1" y2="1"><stop stop-color="#9a6d49"/><stop offset=".52" stop-color="#6e4932"/><stop offset="1" stop-color="#3e281e"/></linearGradient><linearGradient id="metal" x1="0" y1="0" x2="1" y2="1"><stop stop-color="#f5e4ae"/><stop offset=".4" stop-color="#b98939"/><stop offset=".7" stop-color="#f1d27c"/><stop offset="1" stop-color="#845a20"/></linearGradient><filter id="cloth"><feTurbulence type="fractalNoise" baseFrequency=".18 1.4" numOctaves="3" seed="7"/><feColorMatrix values="1 0 0 0 0 0 1 0 0 0 0 0 1 0 0 0 0 0 .16 0"/></filter><filter id="shadow"><feDropShadow dx="0" dy="10" stdDeviation="10" flood-color="#3a2c23" flood-opacity=".34"/></filter><filter id="fur"><feTurbulence type="fractalNoise" baseFrequency=".045" numOctaves="4" seed="13"/><feDisplacementMap in="SourceGraphic" scale="5"/></filter></defs><rect width="900" height="675" fill="url(#linen)"/><rect width="900" height="675" filter="url(#cloth)" opacity=".32"/><path d="M0 565c155-35 276 22 420-6 164-32 316 28 480-5v121H0Z" fill="#a9b6aa" opacity=".52"/><g transform="translate(48 58)" filter="url(#shadow)"><path d="M35 0h116c21 0 38 17 38 38v205c0 21-17 38-38 38H35C14 281-3 264-3 243V38C-3 17 14 0 35 0Z" fill="url(#leather)" stroke="#3d291f" stroke-width="8"/><path d="M26 23h134v234H26Z" fill="#f4eee4" stroke="#d2c2ad" stroke-width="8"/><path d="M40 38h106v176H40Z" fill="#c9d4cf"/><path d="M38 231h110" stroke="#9a7456" stroke-width="7" stroke-linecap="round"/><circle cx="94" cy="238" r="5" fill="#6f4a32"/></g><g transform="translate(650 65) rotate(8)" filter="url(#shadow)"><path d="M15 40c0-24 19-43 43-43h100c24 0 43 19 43 43v115c0 24-19 43-43 43H58c-24 0-43-19-43-43Z" fill="#6b4b34" stroke="#3d281c" stroke-width="8"/><path d="M39 31h139v136H39Z" fill="#f8f3ea" stroke="#c9b9a3" stroke-width="7"/><path d="M55 48h107v100H55Z" fill="#c8d4d0"/></g><g transform="translate(296 438) rotate(-7)" filter="url(#shadow)"><path d="M20 64c0-34 28-62 62-62h155c34 0 62 28 62 62v54c0 34-28 62-62 62H82c-34 0-62-28-62-62Z" fill="url(#leather)" stroke="#422b20" stroke-width="9"/><circle cx="54" cy="91" r="17" fill="#d7b067" stroke="#765027" stroke-width="5"/><circle cx="265" cy="91" r="17" fill="#d7b067" stroke="#765027" stroke-width="5"/><path d="M75 90h169" stroke="#c18c58" stroke-width="11" stroke-linecap="round"/></g><g transform="translate(505 435)" filter="url(#shadow)"><path d="M86 0c44 0 80 36 80 80 0 30-16 56-40 70-24 14-56 14-80 0-24-14-40-40-40-70C6 36 42 0 86 0Z" fill="url(#metal)" stroke="#76501e" stroke-width="8"/><path d="M50 84c0-22 16-38 36-38s36 16 36 38c0 26-26 45-36 58-10-13-36-32-36-58Z" fill="#77543a"/><circle cx="58" cy="48" r="11" fill="#77543a"/><circle cx="82" cy="36" r="11" fill="#77543a"/><circle cx="108" cy="48" r="11" fill="#77543a"/></g><g transform="translate(72 468)" filter="url(#shadow)"><path d="M0 38c17-37 58-53 94-36 35 17 49 60 31 94-17 31-60 43-92 26C2 105-13 70 0 38Z" fill="#b8c2b8" stroke="#718075" stroke-width="7"/><path d="M31 42c10-14 30-18 44-8 13 10 17 31 7 44-13 17-43 20-56 3-8-11-6-27 5-39Z" fill="#f5eee4" filter="url(#fur)"/><circle cx="52" cy="50" r="5" fill="#55473e"/><circle cx="69" cy="50" r="5" fill="#55473e"/></g><g fill="none" stroke="#77624d" stroke-width="5" opacity=".48"><path d="M242 106c63 24 121 24 176 0"/><path d="M474 182c57-20 111-18 164 7"/></g><g fill="#7d8b80" opacity=".38"><circle cx="405" cy="151" r="14"/><circle cx="382" cy="124" r="7"/><circle cx="405" cy="116" r="7"/><circle cx="430" cy="124" r="7"/><circle cx="764" cy="500" r="18"/><circle cx="735" cy="466" r="9"/><circle cx="765" cy="452" r="9"/><circle cx="794" cy="466" r="9"/></g><rect x="22" y="22" width="856" height="631" rx="26" fill="none" stroke="#fff" stroke-width="5" opacity=".55"/></svg>