<svg xmlns="http://www.w3.org/2000/svg" viewBox="0 0 900 675"><defs><linearGradient id="bg" x1="0" y1="0" x2="1" y2="1"><stop stop-color="#f8f1e7"/><stop offset=".52" stop-color="#e3d4c4"/><stop offset="1" stop-color="#b9cab9"/></linearGradient><filter id="s"><feDropShadow dx="0" dy="8" stdDeviation="8" flood-opacity=".24"/></filter><filter id="g"><feTurbulence type="fractalNoise" baseFrequency=".68" numOctaves="3" seed="25"/><feColorMatrix values="1 0 0 0 0 0 1 0 0 0 0 0 1 0 0 0 0 0 .07 0"/></filter></defs><rect width="900" height="675" fill="url(#bg)"/><path d="M0 520c140-45 267 18 401-11 144-31 276 22 499-7v173H0Z" fill="#75907a" opacity=".55"/><g fill="#735847" opacity=".22"><g transform="translate(125 115)"><ellipse cx="0" cy="31" rx="37" ry="32"/><circle cx="-43" cy="-7" r="16"/><circle cx="-15" cy="-28" r="16"/><circle cx="17" cy="-27" r="16"/><circle cx="45" cy="-5" r="16"/></g><g transform="translate(760 524) scale(1.18)"><ellipse cx="0" cy="31" rx="37" ry="32"/><circle cx="-43" cy="-7" r="16"/><circle cx="-15" cy="-28" r="16"/><circle cx="17" cy="-27" r="16"/><circle cx="45" cy="-5" r="16"/></g></g><g transform="translate(90 422)" filter="url(#s)"><path d="M14 112c-35-24-7-73 32-52L169-63c-22-39 28-69 52-33 23-36 74-6 52 33L150 60c39-21 67 28 32 52-24 35-73 7-52-32L78 132c21 39-28 67-52 32-36 21-65-28-32-52Z" fill="#f8f1e5" stroke="#725342" stroke-width="8"/><path d="M61 88 142 7" stroke="#c2a17b" stroke-width="7" opacity=".55"/></g><g transform="translate(557 102)" filter="url(#s)"><path d="M15 121c14-80 74-119 142-90 44 18 74 55 78 100-66-38-150-42-220-10Z" fill="#a45e60" stroke="#754144" stroke-width="7"/><path d="M83 40c7-31 25-47 53-50 29 4 47 21 52 52" fill="none" stroke="#785047" stroke-width="14"/><circle cx="126" cy="111" r="20" fill="#d8b75f" stroke="#8f7337" stroke-width="5"/><path d="M126 95v32" stroke="#fff3c5" stroke-width="5"/></g><g transform="translate(530 392)" filter="url(#s)"><path d="M20 125c16-82 66-119 128-108 59 11 97 57 100 126-72-40-151-45-228-18Z" fill="#d7b99c" stroke="#8e6d55" stroke-width="7"/><path d="M57 66c9-41 31-61 66-64m72 64c-9-41-31-61-66-64" fill="none" stroke="#8e6d55" stroke-width="13"/><circle cx="101" cy="92" r="8" fill="#4b4039"/><circle cx="165" cy="92" r="8" fill="#4b4039"/><ellipse cx="133" cy="117" rx="17" ry="12" fill="#6d5447"/><path d="M119 127c9 13 19 13 29 0" fill="none" stroke="#8a6258" stroke-width="5"/></g><rect width="900" height="675" filter="url(#g)" opacity=".18"/><rect x="20" y="20" width="860" height="635" rx="24" fill="none" stroke="#fff" stroke-width="5" opacity=".68"/></svg>