<svg xmlns="http://www.w3.org/2000/svg" viewBox="0 0 900 675"><defs><linearGradient id="bg" x1="0" y1="0" x2="0" y2="1"><stop stop-color="#dce5e7"/><stop offset=".5" stop-color="#f4f0e8"/><stop offset="1" stop-color="#bacbc2"/></linearGradient><radialGradient id="glow"><stop stop-color="#fff8c8" stop-opacity=".95"/><stop offset=".45" stop-color="#e8c56d" stop-opacity=".48"/><stop offset="1" stop-color="#e8c56d" stop-opacity="0"/></radialGradient><linearGradient id="flame" x1="0" y1="0" x2="0" y2="1"><stop stop-color="#fff4b8"/><stop offset=".55" stop-color="#e8bd5c"/><stop offset="1" stop-color="#c77d36"/></linearGradient><filter id="s"><feDropShadow dx="0" dy="8" stdDeviation="9" flood-opacity=".25"/></filter><filter id="g"><feTurbulence type="fractalNoise" baseFrequency=".6" numOctaves="3" seed="31"/><feColorMatrix values="1 0 0 0 0 0 1 0 0 0 0 0 1 0 0 0 0 0 .07 0"/></filter></defs><rect width="900" height="675" fill="url(#bg)"/><ellipse cx="450" cy="235" rx="175" ry="175" fill="url(#glow)"/><g transform="translate(383 126)" filter="url(#s)"><path d="M67 0C25 52 5 91 8 134c3 43 27 72 59 72s56-29 59-72C129 91 109 52 67 0Z" fill="url(#flame)"/><path d="M67 52c-18 24-26 45-24 66 2 20 11 34 24 34s22-14 24-34c2-21-6-42-24-66Z" fill="#fff4c9" opacity=".82"/><rect x="23" y="195" width="88" height="254" rx="15" fill="#f8f2e8" stroke="#c9bba9" stroke-width="6"/><path d="M27 228c26 13 52 14 80 1" stroke="#fff" stroke-width="10" opacity=".75"/><ellipse cx="67" cy="447" rx="93" ry="28" fill="#5f615d" opacity=".18"/></g><g transform="translate(67 365)" fill="none" stroke="#8b9c94" stroke-linecap="round"><path d="M0 183c54-102 124-126 208-72 42 27 77 61 104 102" stroke-width="8"/><path d="M766 183c-54-102-124-126-208-72-42 27-77 61-104 102" stroke-width="8"/></g><g filter="url(#s)"><g transform="translate(72 458)"><circle cx="65" cy="66" r="35" fill="#d7c2cd"/><circle cx="118" cy="31" r="31" fill="#e5d5dd"/><circle cx="164" cy="69" r="37" fill="#cbb6c2"/><path d="M55 90c35-22 76-25 121-5" fill="none" stroke="#9aaa94" stroke-width="10"/></g><g transform="translate(620 458)"><circle cx="65" cy="66" r="35" fill="#d7c2cd"/><circle cx="118" cy="31" r="31" fill="#e5d5dd"/><circle cx="164" cy="69" r="37" fill="#cbb6c2"/><path d="M55 90c35-22 76-25 121-5" fill="none" stroke="#9aaa94" stroke-width="10"/></g></g><path d="M210 188c40-49 88-49 128 0M562 188c40-49 88-49 128 0" fill="none" stroke="#fff" stroke-width="11" stroke-linecap="round" opacity=".92"/><g fill="#8b9c94" opacity=".75"><path d="M220 568q30-79 60 0Z"/><path d="M620 568q30-79 60 0Z"/></g><rect width="900" height="675" filter="url(#g)" opacity=".18"/><rect x="20" y="20" width="860" height="635" rx="24" fill="none" stroke="#fff" stroke-width="5" opacity=".68"/></svg>