<svg xmlns="http://www.w3.org/2000/svg" viewBox="0 0 900 675"><defs><linearGradient id="sand" x1="0" y1="0" x2="1" y2="1"><stop stop-color="#f3ead7"/><stop offset=".55" stop-color="#d8c39f"/><stop offset="1" stop-color="#bba27c"/></linearGradient><linearGradient id="water" x1="0" y1="0" x2="0" y2="1"><stop stop-color="#bfe4df"/><stop offset=".55" stop-color="#75b8b5"/><stop offset="1" stop-color="#3b8589"/></linearGradient><linearGradient id="aqua" x1="0" y1="0" x2="1" y2="1"><stop stop-color="#d5f4ed" stop-opacity=".96"/><stop offset=".5" stop-color="#71bdb4" stop-opacity=".82"/><stop offset="1" stop-color="#2a7f7b" stop-opacity=".72"/></linearGradient><linearGradient id="blue" x1="0" y1="0" x2="1" y2="1"><stop stop-color="#d8eff5"/><stop offset=".55" stop-color="#6aa7b7"/><stop offset="1" stop-color="#315e70"/></linearGradient><filter id="paper"><feTurbulence type="fractalNoise" baseFrequency=".48" numOctaves="4" seed="19"/><feColorMatrix values="1 0 0 0 0 0 1 0 0 0 0 0 1 0 0 0 0 0 .1 0"/></filter><filter id="glass"><feGaussianBlur in="SourceAlpha" stdDeviation="1" result="b"/><feSpecularLighting in="b" surfaceScale="7" specularConstant=".9" specularExponent="24" lighting-color="#fff" result="s"><feDistantLight azimuth="225" elevation="55"/></feSpecularLighting><feComposite in="s" in2="SourceAlpha" operator="in" result="sp"/><feMerge><feMergeNode in="SourceGraphic"/><feMergeNode in="sp"/></feMerge></filter><filter id="shadow"><feDropShadow dx="0" dy="9" stdDeviation="10" flood-color="#304b47" flood-opacity=".32"/></filter><filter id="blur"><feGaussianBlur stdDeviation="14"/></filter></defs><rect width="900" height="675" fill="url(#sand)"/><path d="M0 0h900v355c-102 34-190 13-282 43-112 37-225 24-332 7C179 388 82 406 0 440Z" fill="url(#water)"/><g opacity=".34" fill="none" stroke="#fff" stroke-linecap="round"><path d="M-30 145c130-56 247 18 374-17s235-22 342 12 184 18 274-15" stroke-width="18"/><path d="M-20 244c111-45 213 14 326-12 112-27 233-30 344 5 99 31 185 22 283-8" stroke-width="10"/><path d="M35 332c103-34 203 21 306-7 129-35 236-17 346 12 76 20 143 16 216 0" stroke-width="7"/></g><g opacity=".3" filter="url(#blur)" fill="#fff"><ellipse cx="155" cy="82" rx="155" ry="38"/><ellipse cx="535" cy="175" rx="220" ry="46"/><ellipse cx="788" cy="65" rx="118" ry="30"/></g><g transform="translate(55 444)" filter="url(#shadow)"><path d="M34 122c-19-33-10-75 24-98 37-25 84-18 109 15 21 28 17 66-10 90-31 28-99 29-123-7Z" fill="url(#aqua)" stroke="#d9f4ee" stroke-width="7" filter="url(#glass)"/><path d="M130 91c-9-27 2-56 29-69 30-14 66-2 78 28 11 28-3 60-31 70-29 10-65-2-76-29Z" fill="url(#blue)" stroke="#e6f5f8" stroke-width="6" filter="url(#glass)"/><path d="M226 129c-16-24-12-57 10-77 25-22 63-20 85 4 21 24 18 62-7 83-25 20-68 16-88-10Z" fill="#d7c49e" fill-opacity=".82" stroke="#f5ead2" stroke-width="6" filter="url(#glass)"/></g><g transform="translate(665 430)" filter="url(#shadow)"><path d="M0 122c30-83 80-117 151-96 58 17 86 64 70 116-18 59-98 77-166 52-45-17-69-38-55-72Z" fill="url(#aqua)" stroke="#e2f6f0" stroke-width="7" filter="url(#glass)"/><path d="M66 18c18 33 45 44 81 33" fill="none" stroke="#fff" stroke-width="8" stroke-linecap="round" opacity=".6"/></g><g transform="translate(728 52) rotate(14)" filter="url(#shadow)"><path d="M17 103C-4 57 15 12 55 3c47-10 83 31 70 74-12 39-84 65-108 26Z" fill="#eff7ef" stroke="#c3c5b4" stroke-width="6"/><path d="M25 92c20-22 42-37 71-48M43 105c10-28 28-50 51-67" stroke="#b7b6a3" stroke-width="4" fill="none"/></g><g transform="translate(80 82)" filter="url(#shadow)"><path d="M5 72c31-51 76-69 129-47 42 18 54 65 28 101-31 43-115 42-150 3C-4 111-6 91 5 72Z" fill="#e8dfc8" stroke="#a78d69" stroke-width="7"/><path d="M34 112c26-41 61-69 108-84M55 129c18-45 49-78 91-99" fill="none" stroke="#b69d78" stroke-width="5"/></g><path d="M505 507c54 18 106 15 158-8" fill="none" stroke="#8a6c48" stroke-width="18" stroke-linecap="round" filter="url(#shadow)"/><g fill="#f8f0dc" opacity=".85"><circle cx="460" cy="534" r="5"/><circle cx="491" cy="560" r="4"/><circle cx="536" cy="585" r="6"/><circle cx="584" cy="546" r="4"/></g><rect width="900" height="675" filter="url(#paper)" opacity=".35"/><rect x="22" y="22" width="856" height="631" rx="26" fill="none" stroke="#fff" stroke-width="5" opacity=".58"/></svg>