<svg xmlns="http://www.w3.org/2000/svg" viewBox="0 0 900 675"><defs><linearGradient id="sky" x1="0" y1="0" x2="0" y2="1"><stop stop-color="#e8f4f1"/><stop offset=".55" stop-color="#bfdcd7"/><stop offset="1" stop-color="#8fbdb8"/></linearGradient><linearGradient id="water" x1="0" y1="0" x2="0" y2="1"><stop stop-color="#79aead"/><stop offset="1" stop-color="#3f777d"/></linearGradient><linearGradient id="glass1" x1="0" y1="0" x2="1" y2="1"><stop stop-color="#e7fff9" stop-opacity=".95"/><stop offset=".5" stop-color="#8ecdc2" stop-opacity=".8"/><stop offset="1" stop-color="#3f8880" stop-opacity=".8"/></linearGradient><linearGradient id="glass2" x1="0" y1="0" x2="1" y2="1"><stop stop-color="#fff3dc"/><stop offset="1" stop-color="#d29a63"/></linearGradient><filter id="s"><feDropShadow dx="0" dy="8" stdDeviation="8" flood-opacity=".24"/></filter><filter id="grain"><feTurbulence type="fractalNoise" baseFrequency=".65" numOctaves="4" seed="23"/><feColorMatrix values="1 0 0 0 0 0 1 0 0 0 0 0 1 0 0 0 0 0 .08 0"/></filter></defs><rect width="900" height="675" fill="url(#sky)"/><path d="M0 418c135-47 246 22 365-16 137-44 255 32 385-5 60-17 105-15 150-1v279H0Z" fill="url(#water)"/><path d="M0 466c130-41 250 24 382-7 141-33 274 20 518-7" fill="none" stroke="#f8f4e9" stroke-width="17" opacity=".8"/><path d="M0 516c155-35 276 20 427-6 147-25 284 20 473-8" fill="none" stroke="#dff1ed" stroke-width="8" opacity=".7"/><g filter="url(#s)"><path d="M86 526c42-70 104-91 161-42-49 12-96 45-132 92-22-5-33-22-29-50Z" fill="url(#glass1)" stroke="#d7f4ec" stroke-width="6"/><path d="M658 111c47-56 112-62 159-5-51 7-102 34-139 74-24-8-31-31-20-69Z" fill="url(#glass1)" stroke="#d7f4ec" stroke-width="6"/><path d="M292 96c31-45 76-51 113-11-35 6-70 26-97 60-16-7-22-24-16-49Z" fill="url(#glass2)" stroke="#f7e8d4" stroke-width="5"/><path d="M707 470c28-42 68-48 101-12-31 7-61 25-83 54-15-6-21-20-18-42Z" fill="#c3d7b9" stroke="#eef5e8" stroke-width="5"/></g><g opacity=".48" fill="#fff"><circle cx="164" cy="179" r="29"/><circle cx="529" cy="125" r="20"/><circle cx="769" cy="311" r="25"/><circle cx="418" cy="292" r="16"/></g><g fill="#dbece8" opacity=".75"><path d="M560 570q35-40 70 0-35 28-70 0Z"/><path d="M285 575q27-31 54 0-27 23-54 0Z"/></g><rect width="900" height="675" filter="url(#grain)" opacity=".2"/><rect x="20" y="20" width="860" height="635" rx="24" fill="none" stroke="#fff" stroke-width="5" opacity=".72"/></svg>