<svg xmlns="http://www.w3.org/2000/svg" viewBox="0 0 900 675"><defs><linearGradient id="b" x1="0" y1="0" x2="1" y2="1"><stop stop-color="#f6eef3"/><stop offset=".5" stop-color="#e5d3e0"/><stop offset="1" stop-color="#d6c2d2"/></linearGradient><filter id="g"><feTurbulence type="fractalNoise" baseFrequency=".7" numOctaves="3" seed="17"/><feColorMatrix values="1 0 0 0 0 0 1 0 0 0 0 0 1 0 0 0 0 0 .08 0"/></filter><pattern id="p" width="300" height="275" patternUnits="userSpaceOnUse" patternTransform="rotate(-8)"><g transform="translate(35 15)"><path d="M116 8C49 12 9 70 16 134c7 68 64 123 130 117 54-5 90-45 83-92-6-39-40-66-76-58-29 6-46 34-37 58 7 20 30 29 48 19 17-9 21-28 12-42" fill="#9f718f" stroke="#5c3d59" stroke-width="7"/><path d="M111 31C68 38 42 75 46 117c5 43 39 77 80 77 33 0 57-23 56-51-1-25-23-44-47-38-19 5-29 24-23 40" fill="#e9dce5" stroke="#f8f1f5" stroke-width="8"/><path d="M93 73c27-26 62-18 72 9-31-6-55 8-72 34-15-11-15-29 0-43Z" fill="#c9a35e" stroke="#725540" stroke-width="4"/><path d="M53 174c28-20 59-25 91-12M71 206c34-16 65-13 94 5" fill="none" stroke="#6d887c" stroke-width="8" stroke-linecap="round"/><circle cx="83" cy="49" r="10" fill="#f4e9ef" stroke="#6d4968" stroke-width="3"/><circle cx="204" cy="122" r="8" fill="#f4e9ef" stroke="#6d4968" stroke-width="3"/></g></pattern></defs><rect width="900" height="675" fill="url(#b)"/><rect width="900" height="675" fill="url(#p)"/><path d="M28 54h844M28 620h844" stroke="#fff" stroke-width="5" opacity=".72"/><rect x="20" y="20" width="860" height="635" rx="24" fill="none" stroke="#fff" stroke-width="5" opacity=".65"/><rect width="900" height="675" filter="url(#g)" opacity=".22"/></svg>