<svg xmlns="http://www.w3.org/2000/svg" viewBox="0 0 900 675"><defs><linearGradient id="fabric" x1="0" y1="0" x2="1" y2="1"><stop stop-color="#efe8ee"/><stop offset=".5" stop-color="#d9cbd9"/><stop offset="1" stop-color="#bdaabd"/></linearGradient><pattern id="paisley" width="250" height="230" patternUnits="userSpaceOnUse" patternTransform="rotate(-7)"><g transform="translate(18 8)"><path d="M116 4C53 7 12 55 14 113c2 64 58 116 121 112 55-4 93-44 89-91-4-41-39-70-77-65-32 4-52 31-47 58 5 23 29 37 50 28 20-9 26-31 14-47" fill="#8d637f" stroke="#563f55" stroke-width="6"/><path d="M112 29C73 34 45 66 46 104c1 43 37 76 78 73 34-3 55-29 49-57-5-23-26-39-48-34-19 4-30 21-27 39" fill="#e7dbe5" stroke="#faf6f9" stroke-width="7"/><path d="M78 80c25-22 56-18 69 7-27-3-51 11-65 35-14-10-16-27-4-42Z" fill="#c3a05d" stroke="#765b38" stroke-width="4"/><path d="M51 158c29-20 59-23 90-9M65 190c31-15 60-13 87 6" fill="none" stroke="#6d897d" stroke-width="7" stroke-linecap="round"/><circle cx="80" cy="51" r="8" fill="#f7eef4" stroke="#6c4c66" stroke-width="3"/><circle cx="196" cy="116" r="7" fill="#f7eef4" stroke="#6c4c66" stroke-width="3"/></g></pattern><filter id="weave"><feTurbulence type="fractalNoise" baseFrequency=".18 1.2" numOctaves="3" seed="17"/><feColorMatrix values="1 0 0 0 0 0 1 0 0 0 0 0 1 0 0 0 0 0 .14 0"/></filter><filter id="shadow"><feDropShadow dx="0" dy="8" stdDeviation="9" flood-color="#594555" flood-opacity=".25"/></filter></defs><rect width="900" height="675" fill="url(#fabric)"/><rect width="900" height="675" fill="url(#paisley)" opacity=".92"/><rect width="900" height="675" filter="url(#weave)" opacity=".38"/><g filter="url(#shadow)" opacity=".92"><path d="M35 35h830v605H35Z" fill="none" stroke="#f9f4f7" stroke-width="10"/><path d="M52 52h796v571H52Z" fill="none" stroke="#76566e" stroke-width="4"/></g><g opacity=".28" fill="#fff"><ellipse cx="462" cy="337" rx="310" ry="205"/></g><g fill="none" stroke="#c7a35d" stroke-width="4" opacity=".65"><path d="M260 73c129 30 258 29 386-2"/><path d="M260 602c129-28 258-28 386 1"/></g></svg>