<svg xmlns="http://www.w3.org/2000/svg" viewBox="0 0 900 675"><defs><radialGradient id="paper" cx="45%" cy="42%" r="78%"><stop stop-color="#f7e8c6"/><stop offset=".58" stop-color="#d9b77d"/><stop offset=".86" stop-color="#a97845"/><stop offset="1" stop-color="#6b442a"/></radialGradient><linearGradient id="wax" x1="0" y1="0" x2="1" y2="1"><stop stop-color="#a74a3f"/><stop offset=".55" stop-color="#762d2b"/><stop offset="1" stop-color="#421b1c"/></linearGradient><filter id="paperNoise"><feTurbulence type="fractalNoise" baseFrequency=".34" numOctaves="5" seed="4"/><feColorMatrix values="1 0 0 0 0 0 1 0 0 0 0 0 1 0 0 0 0 0 .18 0"/></filter><filter id="shadow"><feDropShadow dx="0" dy="12" stdDeviation="12" flood-color="#3f2416" flood-opacity=".38"/></filter></defs><rect width="900" height="675" fill="#5c3d2a"/><path d="M45 26h810c26 0 47 21 47 47v529c0 26-21 47-47 47H45C19 649-2 628-2 602V73C-2 47 19 26 45 26Z" fill="url(#paper)" filter="url(#shadow)"/><rect x="30" y="30" width="840" height="615" filter="url(#paperNoise)" opacity=".36"/><path d="M55 85c56-35 89-26 99 28-33 22-70 20-99-28ZM845 590c-56 35-89 26-99-28 33-22 70-20 99 28Z" fill="#7c5638" opacity=".35"/><g fill="none" stroke="#7d5736" stroke-linecap="round"><path d="M70 190C70 92 134 53 220 63M70 190c34-37 71-60 112-68M830 485c0 98-64 137-150 127M830 485c-34 37-71 60-112 68" stroke-width="9"/><path d="M91 177c10-58 43-91 99-99M810 498c-10 58-43 91-99 99" stroke-width="4"/></g><g transform="translate(85 445) rotate(-8)" filter="url(#shadow)"><path d="M15 114C-8 62 18 12 68 3c57-10 101 40 84 92-16 49-108 71-137 19Z" fill="#c7a271" stroke="#7e5b36" stroke-width="6"/><path d="M34 106c31-41 65-69 103-84M57 120c20-43 47-76 82-99" fill="none" stroke="#9c7650" stroke-width="5"/></g><g transform="translate(650 62) rotate(11)" filter="url(#shadow)"><path d="M10 111C-9 66 9 18 52 4c52-17 104 27 94 80-10 52-107 78-136 27Z" fill="#b9a079" stroke="#735a3c" stroke-width="6"/><path d="M29 101c25-39 58-68 99-86M49 119c19-44 47-77 84-99" fill="none" stroke="#8d7453" stroke-width="5"/></g><g transform="translate(680 480)" filter="url(#shadow)"><circle cx="72" cy="72" r="69" fill="url(#wax)" stroke="#4f1d1e" stroke-width="8"/><circle cx="72" cy="72" r="48" fill="none" stroke="#c27869" stroke-width="4"/><path d="M43 84c17-43 39-61 66-53-6 42-28 70-66 53Z" fill="#d49a84" opacity=".72"/><path d="M72 42v61" stroke="#d49a84" stroke-width="5"/></g><g stroke="#8c663e" stroke-width="3" opacity=".46"><path d="M280 112c95 25 189 24 282-2"/><path d="M281 565c91-24 184-24 279 0"/></g><path d="M50 50h800v575H50Z" fill="none" stroke="#6f4b2f" stroke-width="5" opacity=".6"/><path d="M66 66h768v543H66Z" fill="none" stroke="#d6b47a" stroke-width="2" opacity=".72"/></svg>