<svg xmlns="http://www.w3.org/2000/svg" viewBox="0 0 900 675" width="900" height="675" role="img"><defs><filter id="paper" x="-20%" y="-20%" width="140%" height="140%"><feTurbulence type="fractalNoise" baseFrequency=".65" numOctaves="4" seed="27" result="noise"/><feColorMatrix in="noise" values="1 0 0 0 0  0 1 0 0 0  0 0 1 0 0  0 0 0 .10 0"/><feBlend in="SourceGraphic" mode="multiply"/></filter><filter id="shadow" x="-30%" y="-30%" width="160%" height="160%"><feDropShadow dx="0" dy="8" stdDeviation="8" flood-color="#1a1714" flood-opacity=".28"/></filter><linearGradient id="edge" x1="0" y1="0" x2="1" y2="1"><stop stop-color="#fff" stop-opacity=".8"/><stop offset=".5" stop-color="#fff" stop-opacity=".1"/><stop offset="1" stop-color="#382b25" stop-opacity=".15"/></linearGradient><linearGradient id="sand" x1="0" y1="0" x2="0" y2="1"><stop stop-color="#f7e6c7"/><stop offset=".58" stop-color="#dfbd8c"/><stop offset="1" stop-color="#c99661"/></linearGradient><linearGradient id="sea" x1="0" y1="0" x2="0" y2="1"><stop stop-color="#7bb8c5"/><stop offset="1" stop-color="#316f83"/></linearGradient><radialGradient id="shell" cx=".35" cy=".3"><stop stop-color="#fff7e7"/><stop offset=".55" stop-color="#e9c8a4"/><stop offset="1" stop-color="#9c6e4f"/></radialGradient></defs><rect width="900" height="675" fill="url(#sand)"/><path d="M0 460C120 426 225 482 340 449c126-36 235 28 360-4 78-20 139-15 200 5v225H0Z" fill="url(#sea)"/><path d="M0 500c148-40 252 22 390-8 123-27 250 24 510-10" fill="none" stroke="#fdf4df" stroke-width="20" opacity=".82"/><path d="M0 536c164-29 280 23 424-1 147-25 287 20 476-2" fill="none" stroke="#f7e1bb" stroke-width="8" opacity=".7"/><g transform="translate(78 88)" filter="url(#shadow)"><path d="M15 196C21 83 91 8 190 8c102 0 173 80 179 188-43-36-102-57-177-58-73 1-134 22-177 58Z" fill="#efd9b6" stroke="#8d6848" stroke-width="8"/><path d="M55 155C83 68 131 31 190 15m0 0c58 17 108 55 136 140M105 165c13-79 42-128 85-150m0 0c43 22 72 71 86 150" fill="none" stroke="#b77e4f" stroke-width="7"/><path d="M34 191c89-47 226-47 316 0" fill="none" stroke="#f8edd7" stroke-width="7"/></g><g transform="translate(608 410)" filter="url(#shadow)"><path d="M20 104C52 15 147 6 183 86c-53-27-111-16-163 18Z" fill="url(#shell)" stroke="#8e674e" stroke-width="7"/><path d="M32 92c50-34 101-42 149-17M57 73c27-19 61-30 100-25M82 55c17-10 36-15 58-14" fill="none" stroke="#b98a66" stroke-width="5"/><path d="M0 145c38-58 87-69 127-26-36 5-73 28-102 61-18-7-27-19-25-35Z" fill="#efe1cc" stroke="#84624c" stroke-width="6"/></g><g fill="#725341" opacity=".55"><circle cx="530" cy="590" r="4"/><circle cx="565" cy="560" r="3"/><circle cx="370" cy="606" r="4"/><circle cx="770" cy="575" r="3"/></g><rect x="20" y="20" width="860" height="635" rx="24" fill="none" stroke="url(#edge)" stroke-width="5"/><rect width="900" height="675" fill="transparent" filter="url(#paper)"/></svg>