<svg xmlns="http://www.w3.org/2000/svg" viewBox="0 0 900 675"><defs><linearGradient id="sky" x1="0" y1="0" x2="0" y2="1"><stop stop-color="#d8edf1"/><stop offset="1" stop-color="#9bc7ca"/></linearGradient><linearGradient id="sea" x1="0" y1="0" x2="0" y2="1"><stop stop-color="#6eb7bc"/><stop offset="1" stop-color="#2e7e86"/></linearGradient><linearGradient id="sand" x1="0" y1="0" x2="1" y2="1"><stop stop-color="#f4dfb7"/><stop offset=".58" stop-color="#d7b47b"/><stop offset="1" stop-color="#a77a4e"/></linearGradient><filter id="grain"><feTurbulence type="fractalNoise" baseFrequency=".42" numOctaves="4" seed="18"/><feColorMatrix values="1 0 0 0 0 0 1 0 0 0 0 0 1 0 0 0 0 0 .12 0"/></filter><filter id="shadow"><feDropShadow dx="0" dy="10" stdDeviation="9" flood-color="#57402c" flood-opacity=".32"/></filter></defs><rect width="900" height="675" fill="url(#sky)"/><path d="M0 270c134-30 244 31 376 8 149-26 290-19 524 13v180H0Z" fill="url(#sea)"/><g fill="none" stroke="#fff" stroke-linecap="round" opacity=".7"><path d="M0 336c124-40 236 18 358-7 143-29 276-18 542 14" stroke-width="14"/><path d="M0 398c110-31 220 16 329-3 162-29 298-10 571 18" stroke-width="8"/></g><path d="M0 426c169-57 317-17 471 16 141 31 274 17 429-13v246H0Z" fill="url(#sand)"/><rect width="900" height="675" filter="url(#grain)" opacity=".26"/><g transform="translate(67 462) rotate(-10)" filter="url(#shadow)"><path d="M0 113C7 42 45 4 106 0c64-4 107 37 112 101-49-25-99-32-149-21-25 5-48 16-69 33Z" fill="#e7d6b7" stroke="#8d6a49" stroke-width="8"/><path d="M28 88c18-43 45-71 80-85M67 78c12-36 30-61 56-75M116 79c-2-32-11-57-28-76M166 90c-16-38-36-63-61-78" fill="none" stroke="#b48d61" stroke-width="6"/></g><g transform="translate(690 477)" filter="url(#shadow)"><path d="M0 91c22-58 68-88 119-75 47 12 70 61 48 104-24 46-96 61-145 33C-2 139-10 116 0 91Z" fill="#ddd1b6" stroke="#8d7557" stroke-width="7"/><path d="M22 112c32-38 69-63 112-75M48 135c23-41 54-72 94-93" fill="none" stroke="#a78f6f" stroke-width="5"/></g><g transform="translate(522 492) rotate(9)" filter="url(#shadow)"><path d="M18 83C-5 44 10 8 49 1c48-9 84 32 69 74-16 44-78 57-100 8Z" fill="#d7c49d" stroke="#8f7048" stroke-width="6"/><path d="M31 75c19-29 42-49 72-61" fill="none" stroke="#a98960" stroke-width="5"/></g><g fill="none" stroke="#6b7f59" stroke-width="9" stroke-linecap="round"><path d="M68 579c21-69 52-114 95-136M99 582c18-64 44-105 79-125M823 591c-18-70-47-116-87-139M792 593c-14-58-37-98-69-120"/></g><g fill="#7e9169"><path d="M116 508c-43-10-65-37-66-81 38 6 62 32 66 81Z"/><path d="M151 477c16-40 43-61 83-63-10 39-38 62-83 63Z"/><path d="M752 501c44-8 70-34 76-77-39 3-66 28-76 77Z"/></g><g opacity=".45" fill="#fff"><ellipse cx="180" cy="98" rx="155" ry="34"/><ellipse cx="650" cy="122" rx="205" ry="43"/></g><rect x="22" y="22" width="856" height="631" rx="28" fill="none" stroke="#fff" stroke-width="5" opacity=".6"/></svg>