<svg xmlns="http://www.w3.org/2000/svg" viewBox="0 0 900 675"><defs><linearGradient id="silk" x1="0" y1="0" x2="1" y2="1"><stop stop-color="#fffdf9"/><stop offset=".45" stop-color="#f1e7e3"/><stop offset="1" stop-color="#d9c7c2"/></linearGradient><radialGradient id="rose"><stop stop-color="#fff8f4"/><stop offset=".55" stop-color="#e6c5c7"/><stop offset="1" stop-color="#b77f87"/></radialGradient><linearGradient id="gold"><stop stop-color="#fff0af"/><stop offset=".45" stop-color="#c99a43"/><stop offset=".72" stop-color="#f4d77e"/><stop offset="1" stop-color="#8c6427"/></linearGradient><filter id="fabric"><feTurbulence type="fractalNoise" baseFrequency=".012 .22" numOctaves="3" seed="8"/><feDisplacementMap in="SourceGraphic" scale="6"/><feColorMatrix values="1 0 0 0 0 0 1 0 0 0 0 0 1 0 0 0 0 0 .13 0"/></filter><filter id="shadow"><feDropShadow dx="0" dy="10" stdDeviation="11" flood-color="#6b4c4f" flood-opacity=".25"/></filter><filter id="soft"><feGaussianBlur stdDeviation="10"/></filter></defs><rect width="900" height="675" fill="url(#silk)"/><path d="M0 62c150 46 290-24 434 15 148 40 298-31 466 10V0H0Z" fill="#fff" opacity=".6"/><path d="M0 575c171-44 320 31 470-5 142-34 279 11 430-13v118H0Z" fill="#eadbd5" opacity=".58"/><rect width="900" height="675" filter="url(#fabric)" opacity=".38"/><g transform="translate(34 34)" filter="url(#shadow)"><g><circle cx="74" cy="92" r="48" fill="url(#rose)"/><circle cx="137" cy="67" r="56" fill="url(#rose)"/><circle cx="199" cy="105" r="49" fill="url(#rose)"/><circle cx="122" cy="137" r="47" fill="#f3e7df"/><path d="M14 155c77-82 151-91 223-25" fill="none" stroke="#71816b" stroke-width="17" stroke-linecap="round"/><path d="M44 177c36-46 64-68 106-88M134 172c28-44 60-67 98-79" fill="none" stroke="#8f9b83" stroke-width="9"/></g></g><g transform="translate(640 430)" filter="url(#shadow)"><circle cx="70" cy="100" r="48" fill="url(#rose)"/><circle cx="130" cy="72" r="57" fill="url(#rose)"/><circle cx="194" cy="108" r="49" fill="url(#rose)"/><circle cx="119" cy="142" r="46" fill="#f5ebe4"/><path d="M5 161c79-79 157-87 231-17" fill="none" stroke="#71816b" stroke-width="17" stroke-linecap="round"/></g><g transform="translate(337 238)" filter="url(#shadow)"><circle cx="80" cy="88" r="68" fill="none" stroke="url(#gold)" stroke-width="18"/><circle cx="151" cy="88" r="68" fill="none" stroke="url(#gold)" stroke-width="18"/><path d="M80 18l13-24 19 24" fill="none" stroke="#e7c96b" stroke-width="9"/><circle cx="102" cy="-5" r="14" fill="#fff" stroke="#cdb46a" stroke-width="5"/><path d="M27 167c61 31 126 31 190 0" fill="none" stroke="#b69c7c" stroke-width="7" stroke-linecap="round"/></g><g opacity=".5" fill="none" stroke="#c8aaa9" stroke-width="3"><path d="M252 55c74 65 149 69 229 13"/><path d="M442 602c84-51 171-49 263 7"/></g><g fill="#fff" opacity=".45" filter="url(#soft)"><ellipse cx="435" cy="90" rx="145" ry="27"/><ellipse cx="465" cy="575" rx="170" ry="31"/></g><rect x="25" y="25" width="850" height="625" rx="30" fill="none" stroke="#fff" stroke-width="8" opacity=".72"/><rect x="38" y="38" width="824" height="599" rx="25" fill="none" stroke="#c9a66d" stroke-width="3" opacity=".58"/></svg>