<svg xmlns="http://www.w3.org/2000/svg" viewBox="0 0 900 675"><defs><linearGradient id="bg" x1="0" y1="0" x2="1" y2="1"><stop stop-color="#fffaf5"/><stop offset=".52" stop-color="#f2e5e7"/><stop offset="1" stop-color="#e7dacb"/></linearGradient><linearGradient id="gold" x1="0" y1="0" x2="1" y2="1"><stop stop-color="#f6e8b6"/><stop offset=".5" stop-color="#b99758"/><stop offset="1" stop-color="#745728"/></linearGradient><filter id="s"><feDropShadow dx="0" dy="8" stdDeviation="8" flood-opacity=".22"/></filter><filter id="g"><feTurbulence type="fractalNoise" baseFrequency=".65" numOctaves="3" seed="12"/><feColorMatrix values="1 0 0 0 0 0 1 0 0 0 0 0 1 0 0 0 0 0 .06 0"/></filter></defs><rect width="900" height="675" fill="url(#bg)"/><path d="M0 62c75 55 150 55 225 0s150-55 225 0 150 55 225 0 150-55 225 0M0 615c75-55 150-55 225 0s150 55 225 0 150-55 225 0 150 55 225 0" fill="none" stroke="#c6ac8d" stroke-width="6" opacity=".72"/><g transform="translate(45 30)" filter="url(#s)"><path d="M15 161c37-96 118-143 207-106 54 23 85 67 88 122-84-52-199-58-295-16Z" fill="#cfbfc5" opacity=".85"/><g stroke="#c9b7b9" stroke-width="5"><path d="M34 132c10-68 62-97 111-62 4-61 63-80 105-39 57 55 15 122-53 129-66 7-117-4-163-28Z" fill="#fffaf5"/><path d="M95 113c2-47 35-66 67-41 5-37 40-49 67-22 35 35 8 75-35 81-42 6-72 0-99-18Z" fill="#eadcde"/></g><path d="M36 164c82-71 169-82 260-32" fill="none" stroke="#88977e" stroke-width="12"/></g><g transform="translate(610 420)" filter="url(#s)"><path d="M15 161c37-96 118-143 207-106 54 23 85 67 88 122-84-52-199-58-295-16Z" fill="#cfbfc5" opacity=".85"/><g stroke="#c9b7b9" stroke-width="5"><path d="M34 132c10-68 62-97 111-62 4-61 63-80 105-39 57 55 15 122-53 129-66 7-117-4-163-28Z" fill="#fffaf5"/><path d="M95 113c2-47 35-66 67-41 5-37 40-49 67-22 35 35 8 75-35 81-42 6-72 0-99-18Z" fill="#eadcde"/></g><path d="M36 164c82-71 169-82 260-32" fill="none" stroke="#88977e" stroke-width="12"/></g><g fill="none" stroke="url(#gold)" stroke-width="12" filter="url(#s)"><circle cx="415" cy="322" r="72"/><circle cx="502" cy="322" r="72"/></g><g fill="#fff4c9" opacity=".85"><circle cx="443" cy="254" r="7"/><circle cx="480" cy="390" r="7"/></g><g fill="#b99b63"><circle cx="132" cy="572" r="7"/><circle cx="765" cy="109" r="7"/></g><rect width="900" height="675" filter="url(#g)" opacity=".16"/><rect x="20" y="20" width="860" height="635" rx="24" fill="none" stroke="#fff" stroke-width="5" opacity=".82"/></svg>