<svg xmlns="http://www.w3.org/2000/svg" viewBox="0 0 900 675"><defs><linearGradient id="sky" x1="0" y1="0" x2="0" y2="1"><stop stop-color="#c8dce8"/><stop offset=".55" stop-color="#e7f0f4"/><stop offset="1" stop-color="#f9fbfc"/></linearGradient><linearGradient id="snow" x1="0" y1="0" x2="1" y2="1"><stop stop-color="#fff"/><stop offset=".55" stop-color="#e4eef2"/><stop offset="1" stop-color="#c5d7df"/></linearGradient><linearGradient id="pine" x1="0" y1="0" x2="1" y2="1"><stop stop-color="#496d64"/><stop offset="1" stop-color="#173e38"/></linearGradient><filter id="mist"><feGaussianBlur stdDeviation="18"/></filter><filter id="shadow"><feDropShadow dx="0" dy="8" stdDeviation="8" flood-color="#4a6270" flood-opacity=".28"/></filter><filter id="grain"><feTurbulence type="fractalNoise" baseFrequency=".55" numOctaves="3" seed="11"/><feColorMatrix values="1 0 0 0 0 0 1 0 0 0 0 0 1 0 0 0 0 0 .08 0"/></filter></defs><rect width="900" height="675" fill="url(#sky)"/><g fill="#fff" opacity=".55" filter="url(#mist)"><ellipse cx="180" cy="150" rx="220" ry="60"/><ellipse cx="630" cy="120" rx="270" ry="72"/></g><path d="M0 395c130-69 239-70 361-15 131 58 242 45 539-40v335H0Z" fill="#d7e5ea"/><path d="M0 480c152-72 306-52 450 1 147 54 285 50 450-5v199H0Z" fill="url(#snow)"/><g opacity=".72"><path d="M80 510 156 270l76 240Z" fill="url(#pine)"/><path d="M115 401h82l-41-128Z" fill="#f2f7f8" opacity=".7"/><path d="M690 515 773 246l83 269Z" fill="url(#pine)"/><path d="M729 389h88l-44-140Z" fill="#f2f7f8" opacity=".72"/><path d="M602 524 652 350l50 174Z" fill="#30564f"/></g><g transform="translate(55 52)" filter="url(#shadow)"><path d="M34 0h140c19 0 34 15 34 34v205c0 19-15 34-34 34H34C15 273 0 258 0 239V34C0 15 15 0 34 0Z" fill="#f7fbfc" stroke="#a7bbc4" stroke-width="8"/><path d="M27 28h154v160H27Z" fill="#d6e5ec"/><path d="M38 224h132" stroke="#90a8b2" stroke-width="6" stroke-linecap="round"/></g><g transform="translate(660 55) rotate(5)" filter="url(#shadow)"><path d="M30 0h154c17 0 30 13 30 30v180c0 17-13 30-30 30H30C13 240 0 227 0 210V30C0 13 13 0 30 0Z" fill="#f8fbfc" stroke="#a9bbc2" stroke-width="8"/><path d="M25 25h164v145H25Z" fill="#dce8ed"/></g><g fill="#fff" opacity=".9"><circle cx="296" cy="78" r="5"/><circle cx="350" cy="130" r="7"/><circle cx="430" cy="63" r="4"/><circle cx="516" cy="142" r="6"/><circle cx="610" cy="82" r="5"/><circle cx="258" cy="250" r="4"/><circle cx="570" cy="270" r="6"/></g><g stroke="#d9e7ec" stroke-width="5" opacity=".75"><path d="m385 214v74m-32-55 64 38m0-38-64 38"/><path d="m535 308v86m-37-64 74 43m0-43-74 43"/></g><path d="M278 567c78-34 155-34 231 0" fill="none" stroke="#bfd1d8" stroke-width="10" stroke-linecap="round"/><rect width="900" height="675" filter="url(#grain)" opacity=".25"/><rect x="22" y="22" width="856" height="631" rx="28" fill="none" stroke="#fff" stroke-width="6" opacity=".72"/></svg>