<svg xmlns="http://www.w3.org/2000/svg" viewBox="0 0 1200 700"><defs><linearGradient id="g" x1="0" x2="0" y1="0" y2="1"><stop stop-color="#bde7ff"/><stop offset="1" stop-color="#fff7e8"/></linearGradient></defs><rect width="1200" height="700" fill="url(#g)"/><circle cx="935" cy="120" r="72" fill="#ffd166" opacity=".95"/><path d="M0 500c180-100 330-60 500 0s340 80 700-30v230H0z" fill="#6ab6cf"/><path d="M0 555c200-80 370-45 540 5s360 66 660-20v160H0z" fill="#176b87" opacity=".55"/><path d="M500 620l50-390h100l50 390z" fill="#fff8e8" stroke="#1d3557" stroke-width="10"/><path d="M535 270h130l30 70H505z" fill="#1d3557"/><path d="M560 380h80v95h-80z" fill="#176b87"/><path d="M490 615h220v35H490z" fill="#c78b50"/><text x="600" y="105" text-anchor="middle" font-family="Verdana" font-size="54" fill="#1d3557" font-weight="700">Our Family Adventures</text></svg>
